<svg width="210" height="60" viewBox="0 0 210 60" fill="none" xmlns="http://www.w3.org/2000/svg">
<path d="M91.631 22.2825C92.079 22.4025 92.3179 22.6725 92.3478 23.0925C92.3478 23.8125 91.7803 25.0125 90.6454 26.6925C89.5105 28.3425 88.1067 29.8275 86.4342 31.1475C84.7617 32.4675 83.0891 33.1275 81.4166 33.1275C80.2817 33.1275 79.3857 32.7975 78.7286 32.1375C78.1014 31.4475 77.7878 30.5325 77.7878 29.3925C77.7878 29.0025 77.8177 28.6875 77.8774 28.4475C77.2203 29.5275 76.3542 30.5475 75.279 31.5075C74.2337 32.4375 73.2033 32.9025 72.1878 32.9025C71.3217 32.9025 70.4705 32.5575 69.6342 31.8675C68.7979 31.1775 68.2902 30.4725 68.111 29.7525C68.0811 28.4025 68.2603 26.8575 68.6486 25.1175C69.0667 23.3775 69.9926 20.0025 71.4262 14.9925C71.6054 14.4225 71.8145 14.1375 72.0534 14.1375C72.2923 14.1375 72.6059 14.2575 72.9942 14.4975C73.3825 14.7375 73.5766 14.9775 73.5766 15.2175C73.5766 15.3375 73.5318 15.5025 73.4422 15.7125C73.3825 15.9225 73.3377 16.0875 73.3078 16.2075C71.3963 22.6875 70.3958 26.9775 70.3062 29.0775C70.4555 29.4675 70.7691 29.8725 71.247 30.2925C71.7547 30.6825 72.1878 30.8775 72.5462 30.8775C72.9345 30.8775 73.4721 30.6525 74.159 30.2025C74.8459 29.7225 75.5777 28.9575 76.3542 27.9075C77.1307 26.8275 77.8475 25.4325 78.5046 23.7225C79.2811 21.6525 80.1473 18.6225 81.103 14.6325C81.1627 14.3025 81.327 14.1375 81.5958 14.1375C81.8347 14.1375 82.1483 14.2725 82.5366 14.5425C82.9547 14.7825 83.1638 15.0675 83.1638 15.3975C83.1638 15.6675 83.0294 16.2075 82.7606 17.0175C82.4918 17.8275 82.3275 18.3375 82.2678 18.5475C81.551 20.6475 80.9686 22.5075 80.5206 24.1275C80.1025 25.7175 79.8934 27.1425 79.8934 28.4025C79.8934 30.3525 80.5654 31.3275 81.9094 31.3275C82.7755 31.3275 83.7761 30.9675 84.911 30.2475C86.0459 29.4975 87.1958 28.4325 88.3606 27.0525C89.5553 25.6725 90.6454 24.0825 91.631 22.2825ZM114.913 22.4175C115.301 22.4175 115.495 22.8075 115.495 23.5875C115.495 24.9675 114.883 26.4225 113.658 27.9525C112.463 29.4825 111 30.7725 109.268 31.8225C107.565 32.8425 105.997 33.3525 104.564 33.3525C103.399 33.3525 102.503 32.9925 101.876 32.2725C101.249 31.5525 100.875 30.6225 100.756 29.4825C100.009 30.5625 99.0683 31.4475 97.9333 32.1375C96.7984 32.8275 95.7829 33.1725 94.8869 33.1725C94.1104 33.1725 93.3339 32.9175 92.5573 32.4075C91.8107 31.8675 91.1984 31.2225 90.7205 30.4725C90.2427 29.6925 89.9888 28.9575 89.9589 28.2675L92.1541 19.1775C92.3333 18.4575 92.7813 17.6925 93.4981 16.8825C94.2448 16.0425 95.1408 15.3525 96.1861 14.8125C97.2315 14.2725 98.2917 14.0025 99.3669 14.0025C100.741 14.0025 101.95 14.4675 102.996 15.3975C103.265 14.6775 103.459 14.2275 103.578 14.0475C103.727 13.8675 103.937 13.7625 104.205 13.7325L106.401 13.5075L106.535 13.5975C105.938 14.0775 105.505 14.8275 105.236 15.8475C104.31 19.3275 103.668 21.8925 103.309 23.5425C102.981 25.1925 102.817 26.6475 102.817 27.9075C102.817 29.1675 102.981 30.0975 103.309 30.6975C103.638 31.2675 104.19 31.5525 104.967 31.5525C105.923 31.5525 107.058 31.1625 108.372 30.3825C109.716 29.6025 110.985 28.5225 112.18 27.1425C113.374 25.7325 114.285 24.1575 114.913 22.4175ZM95.0661 31.0575C95.5739 31.0575 96.1861 30.8775 96.9029 30.5175C97.6496 30.1575 98.3365 29.6475 98.9637 28.9875C99.6208 28.2975 100.069 27.5175 100.308 26.6475L101.159 22.9575C101.278 22.3575 101.487 21.3975 101.786 20.0775C102.085 18.7275 102.324 17.6925 102.503 16.9725C101.667 16.1325 100.651 15.7125 99.4565 15.7125C98.5307 15.7125 97.6944 15.9675 96.9477 16.4775C96.2011 16.9575 95.5888 17.5575 95.1109 18.2775C94.6331 18.9675 94.3344 19.5825 94.2149 20.1225L92.4229 28.1325C92.4827 28.8825 92.7813 29.5575 93.3189 30.1575C93.8565 30.7575 94.4389 31.0575 95.0661 31.0575ZM101.338 10.4925C101.219 10.6125 101.039 10.6725 100.801 10.6725C100.591 10.6725 100.397 10.6275 100.218 10.5375C100.039 10.4175 99.9493 10.2975 99.9493 10.1775C102.04 8.04749 104.892 5.00249 108.506 1.0425C108.715 0.802495 108.969 0.682495 109.268 0.682495C109.507 0.682495 109.865 0.817495 110.343 1.0875C110.851 1.3575 111.105 1.5975 111.105 1.8075V1.85249C111.105 2.15249 110.866 2.49749 110.388 2.8875C110.059 3.18749 109.566 3.60749 108.909 4.14749C105.743 6.81749 103.22 8.9325 101.338 10.4925ZM134.604 21.8325C134.902 21.8325 135.111 21.9675 135.231 22.2375C135.38 22.4775 135.455 22.7625 135.455 23.0925C135.455 24.1725 134.887 25.5375 133.752 27.1875C132.617 28.8375 131.169 30.2775 129.407 31.5075C127.674 32.7375 125.957 33.3525 124.255 33.3525C123.18 33.3525 122.343 33.0825 121.746 32.5425C121.178 32.0025 120.895 31.1775 120.895 30.0675C120.895 28.5375 121.313 26.4675 122.149 23.8575C122.985 21.2175 123.747 19.0275 124.434 17.2875C124.314 17.1075 124.195 17.0175 124.076 17.0175C123.956 17.0175 123.822 17.0625 123.672 17.1525C123.135 17.4825 122.254 18.2175 121.029 19.3575C119.805 20.4975 118.61 21.6975 117.445 22.9575C116.28 24.2175 115.489 25.2375 115.071 26.0175C114.593 27.3075 114.294 28.1325 114.175 28.4925C114.055 28.8225 113.936 29.3775 113.816 30.1575L113.413 32.1825C113.383 32.2725 113.353 32.3925 113.324 32.5425C113.294 32.6625 113.249 32.7375 113.189 32.7675C113.159 32.7975 113.1 32.8125 113.01 32.8125C112.741 32.8125 112.383 32.7825 111.935 32.7225C111.517 32.6625 111.308 32.5725 111.308 32.4525C111.308 32.0925 111.412 31.5075 111.621 30.6975C111.83 29.8875 112.039 29.1525 112.248 28.4925C112.457 27.8325 112.622 27.3225 112.741 26.9625L113.144 25.7025C114.01 22.7025 114.593 20.5275 114.892 19.1775C115.22 17.7975 115.534 16.2675 115.832 14.5875C115.862 14.2875 116.071 14.1375 116.46 14.1375C116.728 14.1375 117.027 14.2125 117.356 14.3625C117.714 14.4825 117.923 14.6625 117.983 14.9025C117.863 15.4425 117.639 16.3575 117.311 17.6475C117.012 18.9375 116.639 20.3625 116.191 21.9225C117.923 19.9725 119.715 18.2025 121.567 16.6125C123.448 15.0225 124.703 14.2275 125.33 14.2275C125.629 14.2275 125.987 14.3775 126.405 14.6775C126.823 14.9775 127.077 15.2625 127.167 15.5325C126.211 18.1125 125.3 20.9325 124.434 23.9925C123.568 27.0225 123.135 29.0175 123.135 29.9775C123.135 31.0275 123.732 31.5525 124.927 31.5525C126.689 31.5525 128.466 30.5625 130.258 28.5825C132.08 26.6025 133.528 24.3525 134.604 21.8325ZM155.987 22.2825C156.435 22.4025 156.674 22.6725 156.704 23.0925C156.704 23.8125 156.136 25.0125 155.002 26.6925C153.867 28.3425 152.463 29.8275 150.79 31.1475C149.118 32.4675 147.445 33.1275 145.773 33.1275C144.638 33.1275 143.742 32.7975 143.085 32.1375C142.458 31.4475 142.144 30.5325 142.144 29.3925C142.144 29.0025 142.174 28.6875 142.234 28.4475C141.576 29.5275 140.71 30.5475 139.635 31.5075C138.59 32.4375 137.559 32.9025 136.544 32.9025C135.678 32.9025 134.827 32.5575 133.99 31.8675C133.154 31.1775 132.646 30.4725 132.467 29.7525C132.437 28.4025 132.616 26.8575 133.005 25.1175C133.423 23.3775 134.349 20.0025 135.782 14.9925C135.962 14.4225 136.171 14.1375 136.41 14.1375C136.648 14.1375 136.962 14.2575 137.35 14.4975C137.739 14.7375 137.933 14.9775 137.933 15.2175C137.933 15.3375 137.888 15.5025 137.798 15.7125C137.739 15.9225 137.694 16.0875 137.664 16.2075C135.752 22.6875 134.752 26.9775 134.662 29.0775C134.812 29.4675 135.125 29.8725 135.603 30.2925C136.111 30.6825 136.544 30.8775 136.902 30.8775C137.291 30.8775 137.828 30.6525 138.515 30.2025C139.202 29.7225 139.934 28.9575 140.71 27.9075C141.487 26.8275 142.204 25.4325 142.861 23.7225C143.637 21.6525 144.503 18.6225 145.459 14.6325C145.519 14.3025 145.683 14.1375 145.952 14.1375C146.191 14.1375 146.504 14.2725 146.893 14.5425C147.311 14.7825 147.52 15.0675 147.52 15.3975C147.52 15.6675 147.386 16.2075 147.117 17.0175C146.848 17.8275 146.684 18.3375 146.624 18.5475C145.907 20.6475 145.325 22.5075 144.877 24.1275C144.459 25.7175 144.25 27.1425 144.25 28.4025C144.25 30.3525 144.922 31.3275 146.266 31.3275C147.132 31.3275 148.132 30.9675 149.267 30.2475C150.402 29.4975 151.552 28.4325 152.717 27.0525C153.911 25.6725 155.002 24.0825 155.987 22.2825ZM160.722 33.0375C159.169 33.0375 157.9 32.6775 156.914 31.9575C155.928 31.2075 155.212 30.3975 154.764 29.5275C154.316 28.6275 154.092 28.0125 154.092 27.6825C154.988 24.2925 155.764 20.9325 156.421 17.6025C156.541 17.0025 156.914 16.4475 157.541 15.9375C158.198 15.3975 158.945 14.9625 159.781 14.6325C160.647 14.3025 161.409 14.1375 162.066 14.1375C162.723 14.1375 163.395 14.3025 164.082 14.6325C164.799 14.9625 165.396 15.3825 165.874 15.8925C166.352 16.4025 166.591 16.9425 166.591 17.5125C166.591 18.3525 166.188 19.0875 165.381 19.7175L165.157 19.6725C165.097 18.6825 164.739 17.8425 164.082 17.1525C163.455 16.4325 162.738 16.0725 161.932 16.0725C161.245 16.0725 160.498 16.3125 159.692 16.7925C158.885 17.2425 158.422 17.7675 158.303 18.3675C157.825 20.8875 157.452 22.7625 157.183 23.9925L156.466 27.3675C156.466 27.7575 156.63 28.2525 156.959 28.8525C157.317 29.4225 157.84 29.9325 158.527 30.3825C159.214 30.8025 160.065 31.0125 161.08 31.0125C162.156 31.0125 163.425 30.7575 164.888 30.2475C166.382 29.7075 167.875 28.7625 169.368 27.4125C170.862 26.0325 172.071 24.2025 172.997 21.9225C173.296 21.9225 173.49 22.0275 173.58 22.2375C173.669 22.4475 173.714 22.7325 173.714 23.0925C173.714 24.4725 173.012 25.9425 171.608 27.5025C170.234 29.0625 168.517 30.3825 166.456 31.4625C164.425 32.5125 162.514 33.0375 160.722 33.0375ZM195.3 16.9275C195.599 17.0175 195.748 17.3175 195.748 17.8275C195.748 18.5775 195.449 19.3575 194.852 20.1675C194.255 20.9475 193.433 21.5925 192.388 22.1025C191.373 22.6125 190.253 22.8675 189.028 22.8675C187.385 22.8675 185.937 22.4175 184.682 21.5175C184.503 22.3875 184.279 23.2725 184.01 24.1725C183.921 24.5025 183.727 25.2675 183.428 26.4675C183.129 27.6375 182.92 28.6875 182.801 29.6175C182.592 30.0975 182.174 30.6225 181.546 31.1925C180.919 31.7325 180.173 32.1975 179.306 32.5875C178.44 32.9775 177.589 33.1725 176.753 33.1725C175.827 33.1725 174.931 32.9325 174.065 32.4525C173.199 31.9725 172.482 31.3275 171.914 30.5175C171.377 29.7075 171.108 28.8075 171.108 27.8175C171.526 26.5575 171.87 25.3725 172.138 24.2625C172.407 23.1525 172.661 22.0275 172.9 20.8875L173.348 18.6375C173.497 17.9475 173.901 17.2725 174.558 16.6125C175.215 15.9225 176.006 15.3675 176.932 14.9475C177.888 14.4975 178.844 14.2725 179.799 14.2725C180.158 14.2725 180.665 14.3325 181.322 14.4525C181.412 13.7625 181.561 13.2825 181.77 13.0125C182.009 12.7425 182.383 12.6075 182.89 12.6075C183.189 12.6075 183.533 12.6525 183.921 12.7425C183.772 13.5825 183.697 14.3025 183.697 14.9025C183.697 16.6425 184.22 18.1125 185.265 19.3125C186.31 20.5125 187.729 21.1125 189.521 21.1125C190.865 21.1125 192.015 20.7525 192.97 20.0325C193.956 19.3125 194.733 18.2775 195.3 16.9275ZM180.83 28.8525C181.069 27.6525 181.412 26.2875 181.86 24.7575C182.457 22.7475 182.846 21.1275 183.025 19.8975C182.368 19.0575 181.92 18.0375 181.681 16.8375C181.681 16.7175 181.651 16.6275 181.591 16.5675C181.561 16.4775 181.472 16.4175 181.322 16.3875C180.874 16.2075 180.367 16.1175 179.799 16.1175C178.694 16.1175 177.738 16.4175 176.932 17.0175C176.126 17.6175 175.618 18.3375 175.409 19.1775C175.319 19.5375 174.991 20.9475 174.423 23.4075C174.154 24.8475 173.826 26.2725 173.438 27.6825C173.438 28.7925 173.811 29.6625 174.558 30.2925C175.304 30.8925 176.096 31.1925 176.932 31.1925C177.649 31.1925 178.41 30.9375 179.217 30.4275C180.053 29.9175 180.591 29.3925 180.83 28.8525Z" fill="white"/>
<path d="M65.8822 44.0438C65.8822 43.6838 65.9233 43.335 66.0054 42.9975C66.0875 42.66 66.1883 42.3225 66.3078 41.985C66.375 41.79 66.4758 41.5838 66.6102 41.3663C66.7446 41.1413 66.9051 40.935 67.0918 40.7475C67.2785 40.5525 67.4801 40.3913 67.6966 40.2638C67.9206 40.1363 68.1521 40.0725 68.391 40.0725C68.6001 40.0725 68.8091 40.11 69.0182 40.185C69.2273 40.26 69.4102 40.3725 69.567 40.5225C69.7313 40.665 69.8619 40.8488 69.959 41.0738C70.0635 41.2913 70.1158 41.5425 70.1158 41.8275C70.1158 41.895 70.1046 41.9738 70.0822 42.0638C70.0673 42.1463 70.0411 42.2288 70.0038 42.3113C69.9739 42.3863 69.9291 42.45 69.8694 42.5025C69.8097 42.555 69.7425 42.5813 69.6678 42.5813C69.5633 42.5813 69.4923 42.5438 69.455 42.4688C69.4251 42.3938 69.4065 42.3 69.399 42.1875C69.3915 42.0675 69.3803 41.9438 69.3654 41.8163C69.3579 41.6813 69.3243 41.5575 69.2646 41.445C69.2049 41.325 69.1078 41.2275 68.9734 41.1525C68.8465 41.0775 68.6561 41.04 68.4022 41.04C68.1931 41.04 68.0027 41.0963 67.831 41.2088C67.6593 41.3213 67.5062 41.4675 67.3718 41.6475C67.2449 41.82 67.1329 42.0188 67.0358 42.2438C66.9387 42.4613 66.8603 42.6825 66.8006 42.9075C66.7409 43.125 66.6961 43.335 66.6662 43.5375C66.6363 43.74 66.6214 43.905 66.6214 44.0325C66.6214 44.2725 66.6662 44.4825 66.7558 44.6625C66.8529 44.8425 66.9761 44.9963 67.1254 45.1238C67.2822 45.2513 67.4539 45.3488 67.6406 45.4163C67.8347 45.4763 68.0326 45.5063 68.2342 45.5063C68.3313 45.5063 68.447 45.5025 68.5814 45.495C68.7158 45.4875 68.8539 45.4725 68.9958 45.45C69.1377 45.4275 69.2758 45.4013 69.4102 45.3713C69.5446 45.3413 69.6641 45.3038 69.7686 45.2588C69.8881 45.1538 69.9777 45.075 70.0374 45.0225C70.0971 44.97 70.1457 44.9438 70.183 44.9438C70.2875 44.9438 70.3734 44.9925 70.4406 45.09C70.5078 45.1875 70.5414 45.3113 70.5414 45.4613C70.5414 45.6563 70.463 45.8213 70.3062 45.9563C70.1569 46.0838 69.9702 46.1888 69.7462 46.2713C69.5222 46.3463 69.2795 46.3988 69.0182 46.4288C68.7569 46.4663 68.5217 46.485 68.3126 46.485C68.0214 46.485 67.7302 46.4513 67.439 46.3838C67.1553 46.3163 66.8977 46.1925 66.6662 46.0125C66.4347 45.8325 66.2443 45.585 66.095 45.27C65.9531 44.9475 65.8822 44.5388 65.8822 44.0438ZM72.1892 40.3425C72.1369 40.3425 72.0772 40.335 72.01 40.32C71.9428 40.305 71.8793 40.2788 71.8196 40.2413C71.7599 40.1963 71.7076 40.14 71.6628 40.0725C71.6255 39.9975 71.6068 39.9 71.6068 39.78C71.6068 39.6975 71.6217 39.615 71.6516 39.5325C71.6889 39.45 71.7337 39.3788 71.786 39.3188C71.8383 39.2513 71.8943 39.1988 71.954 39.1613C72.0212 39.1163 72.0847 39.0938 72.1444 39.0938C72.2639 39.0938 72.3796 39.135 72.4916 39.2175C72.6111 39.3 72.6708 39.4613 72.6708 39.7013C72.6708 40.1288 72.5103 40.3425 72.1892 40.3425ZM71.562 46.0013C71.5545 45.9638 71.5433 45.8738 71.5284 45.7313C71.5209 45.5813 71.5172 45.315 71.5172 44.9325C71.5172 44.7825 71.5172 44.5913 71.5172 44.3588C71.5172 44.1188 71.5209 43.8713 71.5284 43.6163C71.5433 43.3538 71.562 43.0913 71.5844 42.8288C71.6143 42.5663 71.6479 42.33 71.6852 42.12C71.73 41.91 71.786 41.7413 71.8532 41.6138C71.9204 41.4788 72.0025 41.4113 72.0996 41.4113C72.2191 41.4113 72.29 41.4638 72.3124 41.5688C72.3423 41.6738 72.3572 41.7975 72.3572 41.94C72.3423 42.255 72.3199 42.6113 72.29 43.0088C72.2601 43.3988 72.2452 43.7813 72.2452 44.1563C72.2452 44.4338 72.2676 44.7413 72.3124 45.0788C72.3572 45.4088 72.3796 45.705 72.3796 45.9675C72.3796 46.1475 72.3423 46.2863 72.2676 46.3838C72.1929 46.4738 72.1145 46.5188 72.0324 46.5188C71.9055 46.5188 71.8047 46.4813 71.73 46.4063C71.6553 46.3313 71.5993 46.1963 71.562 46.0013ZM75.0746 46.5525C74.6938 46.5525 74.3877 46.4588 74.1562 46.2713C73.9322 46.0763 73.7605 45.84 73.641 45.5625C73.5215 45.285 73.4431 44.9925 73.4058 44.685C73.3759 44.37 73.361 44.0925 73.361 43.8525C73.361 43.62 73.3685 43.365 73.3834 43.0875C73.4058 42.81 73.4431 42.5513 73.4954 42.3113C73.5477 42.0638 73.6149 41.8575 73.697 41.6925C73.7866 41.5275 73.8949 41.445 74.0218 41.445C74.1263 41.445 74.1973 41.4788 74.2346 41.5463C74.2794 41.6138 74.3018 41.7038 74.3018 41.8163C74.3018 41.9288 74.2869 42.06 74.257 42.21C74.2346 42.3525 74.2085 42.5063 74.1786 42.6713C74.1487 42.8363 74.1189 43.0088 74.089 43.1888C74.0666 43.3688 74.0554 43.5488 74.0554 43.7288C74.0554 43.8713 74.0666 44.0475 74.089 44.2575C74.1114 44.4675 74.1562 44.67 74.2234 44.865C74.2906 45.0525 74.3877 45.2175 74.5146 45.36C74.6415 45.495 74.8133 45.5625 75.0298 45.5625C75.2015 45.5625 75.3546 45.5288 75.489 45.4613C75.6309 45.3863 75.7578 45.2963 75.8698 45.1913C75.9818 45.0788 76.0789 44.955 76.161 44.82C76.2506 44.685 76.3365 44.5538 76.4186 44.4263C76.4335 44.1863 76.4447 43.9838 76.4522 43.8188C76.4671 43.6463 76.4783 43.4813 76.4858 43.3238L76.5082 41.8838C76.5082 41.7113 76.553 41.595 76.6426 41.535C76.7322 41.475 76.8106 41.445 76.8778 41.445C76.945 41.445 77.0122 41.4788 77.0794 41.5463C77.1466 41.6138 77.1802 41.715 77.1802 41.85L77.113 45.9675C77.1055 46.1625 77.0757 46.2938 77.0234 46.3613C76.9711 46.4288 76.889 46.4625 76.777 46.4625C76.7098 46.4625 76.6501 46.4513 76.5978 46.4288C76.5455 46.4138 76.5045 46.38 76.4746 46.3275C76.4447 46.2675 76.4223 46.185 76.4074 46.08C76.3925 45.9675 76.385 45.8213 76.385 45.6413C76.385 45.5813 76.385 45.5138 76.385 45.4388C76.385 45.3638 76.3887 45.285 76.3962 45.2025C76.3514 45.3975 76.2805 45.5775 76.1834 45.7425C76.0938 45.9075 75.9855 46.05 75.8586 46.17C75.7391 46.29 75.6122 46.3838 75.4778 46.4513C75.3434 46.5188 75.209 46.5525 75.0746 46.5525ZM78.1173 44.2013C78.1173 43.8488 78.1695 43.5075 78.2741 43.1775C78.3786 42.84 78.5279 42.5438 78.7221 42.2888C78.9237 42.0263 79.1701 41.82 79.4613 41.67C79.7525 41.5125 80.0847 41.4338 80.4581 41.4338C80.7717 41.4338 81.0479 41.52 81.2869 41.6925C81.5258 41.865 81.6602 42.0938 81.6901 42.3788C81.6901 42.2963 81.6901 42.18 81.6901 42.03C81.6901 41.8725 81.6901 41.6963 81.6901 41.5013C81.6975 41.3063 81.7013 41.1075 81.7013 40.905C81.7013 40.695 81.7013 40.4925 81.7013 40.2975C81.7087 40.1025 81.7125 39.93 81.7125 39.78C81.7125 39.6225 81.7125 39.5025 81.7125 39.42C81.7125 39.06 81.8431 38.88 82.1045 38.88C82.209 38.88 82.2799 38.9325 82.3173 39.0375C82.3621 39.1425 82.3845 39.255 82.3845 39.375C82.3845 39.435 82.3845 39.54 82.3845 39.69C82.3845 39.8325 82.3807 39.9863 82.3733 40.1513C82.3733 40.3088 82.3733 40.4588 82.3733 40.6013C82.3733 40.7438 82.3733 40.8488 82.3733 40.9163C82.3583 41.4488 82.3471 41.9025 82.3397 42.2775C82.3322 42.645 82.3247 42.9488 82.3173 43.1888C82.3173 43.4288 82.3135 43.6163 82.3061 43.7513C82.3061 43.8863 82.3061 43.9875 82.3061 44.055C82.3061 44.115 82.3061 44.1525 82.3061 44.1675C82.3061 44.1825 82.3061 44.1938 82.3061 44.2013L82.2949 45.09C82.2949 45.285 82.2874 45.4688 82.2725 45.6413C82.265 45.8063 82.2463 45.9525 82.2165 46.08C82.1866 46.2 82.1418 46.2975 82.0821 46.3725C82.0223 46.4475 81.9439 46.485 81.8469 46.485C81.7647 46.485 81.6975 46.425 81.6453 46.305C81.593 46.185 81.5482 46.0688 81.5109 45.9563C81.4213 46.0463 81.3093 46.125 81.1749 46.1925C81.0405 46.2525 80.9023 46.305 80.7605 46.35C80.6186 46.3875 80.4767 46.4175 80.3349 46.44C80.2005 46.4625 80.0847 46.4738 79.9877 46.4738C79.6741 46.4738 79.3978 46.4213 79.1589 46.3163C78.9274 46.2038 78.7333 46.0463 78.5765 45.8438C78.4197 45.6413 78.3039 45.4013 78.2293 45.1238C78.1546 44.8463 78.1173 44.5388 78.1173 44.2013ZM78.8341 44.1675C78.8341 44.6025 78.9573 44.9438 79.2037 45.1913C79.4501 45.4313 79.7525 45.5513 80.1109 45.5513C80.3274 45.5513 80.5215 45.5288 80.6933 45.4838C80.865 45.4313 81.0106 45.3713 81.1301 45.3038C81.2495 45.2363 81.3429 45.165 81.4101 45.09C81.4847 45.015 81.5295 44.9475 81.5445 44.8875C81.5818 44.76 81.6005 44.625 81.6005 44.4825C81.6079 44.34 81.6117 44.2013 81.6117 44.0663V43.7625C81.6117 43.5825 81.5781 43.4138 81.5109 43.2563C81.4511 43.0913 81.369 42.945 81.2645 42.8175C81.1599 42.69 81.0367 42.5888 80.8949 42.5138C80.7605 42.4388 80.6186 42.4013 80.4693 42.4013C80.2154 42.4013 79.9877 42.4463 79.7861 42.5363C79.5845 42.6188 79.4127 42.7388 79.2709 42.8963C79.129 43.0538 79.0207 43.2413 78.9461 43.4588C78.8714 43.6763 78.8341 43.9125 78.8341 44.1675ZM83.2217 44.4713C83.2217 44.1038 83.2851 43.74 83.4121 43.38C83.539 43.0125 83.7145 42.6863 83.9385 42.4013C84.1625 42.1088 84.4201 41.8763 84.7113 41.7038C85.0099 41.5238 85.3273 41.4338 85.6633 41.4338C85.9171 41.4338 86.1561 41.4938 86.3801 41.6138C86.6115 41.7338 86.8094 41.8913 86.9737 42.0863C87.1379 42.2738 87.2686 42.4913 87.3657 42.7388C87.4627 42.9788 87.5113 43.2188 87.5113 43.4588C87.5113 43.5863 87.5038 43.71 87.4889 43.83C87.4739 43.9425 87.4553 44.0588 87.4329 44.1788C87.4179 44.2913 87.403 44.4113 87.3881 44.5388C87.3731 44.6663 87.3657 44.8088 87.3657 44.9663C87.3657 45.1763 87.3955 45.3225 87.4553 45.405C87.515 45.4875 87.6009 45.5288 87.7129 45.5288C87.7801 45.5288 87.8435 45.4913 87.9033 45.4163C87.9705 45.3413 88.0302 45.2963 88.0825 45.2813C88.2766 45.2813 88.3737 45.4238 88.3737 45.7088C88.3737 45.7988 88.355 45.8888 88.3177 45.9788C88.2803 46.0688 88.2281 46.1513 88.1609 46.2263C88.0937 46.2938 88.0153 46.3538 87.9257 46.4063C87.8361 46.4513 87.739 46.4738 87.6345 46.4738C87.5299 46.4738 87.4254 46.4438 87.3209 46.3838C87.2238 46.3238 87.1342 46.2488 87.0521 46.1588C86.9699 46.0613 86.9027 45.9525 86.8505 45.8325C86.7982 45.705 86.7721 45.5738 86.7721 45.4388C86.5481 45.7238 86.2942 45.975 86.0105 46.1925C85.7342 46.41 85.4281 46.5188 85.0921 46.5188C84.8755 46.5188 84.6553 46.4663 84.4313 46.3613C84.2147 46.2563 84.0169 46.1138 83.8377 45.9338C83.6585 45.7463 83.5091 45.5288 83.3897 45.2813C83.2777 45.0263 83.2217 44.7563 83.2217 44.4713ZM83.9161 44.4375C83.9161 44.6025 83.9534 44.7525 84.0281 44.8875C84.1102 45.0225 84.2147 45.1388 84.3417 45.2363C84.4761 45.3263 84.6217 45.3975 84.7785 45.45C84.9427 45.5025 85.1033 45.5288 85.2601 45.5288C85.5886 45.5288 85.8499 45.4575 86.0441 45.315C86.2382 45.165 86.3913 44.9813 86.5033 44.7638C86.6153 44.5388 86.6937 44.2988 86.7385 44.0438C86.7833 43.7813 86.8243 43.5338 86.8617 43.3013C86.8617 43.2188 86.8206 43.1288 86.7385 43.0313C86.6638 42.9263 86.5705 42.8325 86.4585 42.75C86.3465 42.66 86.2233 42.585 86.0889 42.525C85.9619 42.465 85.8462 42.435 85.7417 42.435C85.4654 42.435 85.2153 42.495 84.9913 42.615C84.7673 42.735 84.5731 42.8925 84.4089 43.0875C84.2521 43.275 84.1289 43.4888 84.0393 43.7288C83.9571 43.9688 83.9161 44.205 83.9161 44.4375ZM88.6173 44.2013C88.6173 43.8488 88.6695 43.5075 88.7741 43.1775C88.8786 42.84 89.0279 42.5438 89.2221 42.2888C89.4237 42.0263 89.6701 41.82 89.9613 41.67C90.2525 41.5125 90.5847 41.4338 90.9581 41.4338C91.2717 41.4338 91.5479 41.52 91.7869 41.6925C92.0258 41.865 92.1602 42.0938 92.1901 42.3788C92.1901 42.2963 92.1901 42.18 92.1901 42.03C92.1901 41.8725 92.1901 41.6963 92.1901 41.5013C92.1975 41.3063 92.2013 41.1075 92.2013 40.905C92.2013 40.695 92.2013 40.4925 92.2013 40.2975C92.2087 40.1025 92.2125 39.93 92.2125 39.78C92.2125 39.6225 92.2125 39.5025 92.2125 39.42C92.2125 39.06 92.3431 38.88 92.6045 38.88C92.709 38.88 92.7799 38.9325 92.8173 39.0375C92.8621 39.1425 92.8845 39.255 92.8845 39.375C92.8845 39.435 92.8845 39.54 92.8845 39.69C92.8845 39.8325 92.8807 39.9863 92.8733 40.1513C92.8733 40.3088 92.8733 40.4588 92.8733 40.6013C92.8733 40.7438 92.8733 40.8488 92.8733 40.9163C92.8583 41.4488 92.8471 41.9025 92.8397 42.2775C92.8322 42.645 92.8247 42.9488 92.8173 43.1888C92.8173 43.4288 92.8135 43.6163 92.8061 43.7513C92.8061 43.8863 92.8061 43.9875 92.8061 44.055C92.8061 44.115 92.8061 44.1525 92.8061 44.1675C92.8061 44.1825 92.8061 44.1938 92.8061 44.2013L92.7949 45.09C92.7949 45.285 92.7874 45.4688 92.7725 45.6413C92.765 45.8063 92.7463 45.9525 92.7165 46.08C92.6866 46.2 92.6418 46.2975 92.5821 46.3725C92.5223 46.4475 92.4439 46.485 92.3469 46.485C92.2647 46.485 92.1975 46.425 92.1453 46.305C92.093 46.185 92.0482 46.0688 92.0109 45.9563C91.9213 46.0463 91.8093 46.125 91.6749 46.1925C91.5405 46.2525 91.4023 46.305 91.2605 46.35C91.1186 46.3875 90.9767 46.4175 90.8349 46.44C90.7005 46.4625 90.5847 46.4738 90.4877 46.4738C90.1741 46.4738 89.8978 46.4213 89.6589 46.3163C89.4274 46.2038 89.2333 46.0463 89.0765 45.8438C88.9197 45.6413 88.8039 45.4013 88.7293 45.1238C88.6546 44.8463 88.6173 44.5388 88.6173 44.2013ZM89.3341 44.1675C89.3341 44.6025 89.4573 44.9438 89.7037 45.1913C89.9501 45.4313 90.2525 45.5513 90.6109 45.5513C90.8274 45.5513 91.0215 45.5288 91.1933 45.4838C91.365 45.4313 91.5106 45.3713 91.6301 45.3038C91.7495 45.2363 91.8429 45.165 91.9101 45.09C91.9847 45.015 92.0295 44.9475 92.0445 44.8875C92.0818 44.76 92.1005 44.625 92.1005 44.4825C92.1079 44.34 92.1117 44.2013 92.1117 44.0663V43.7625C92.1117 43.5825 92.0781 43.4138 92.0109 43.2563C91.9511 43.0913 91.869 42.945 91.7645 42.8175C91.6599 42.69 91.5367 42.5888 91.3949 42.5138C91.2605 42.4388 91.1186 42.4013 90.9693 42.4013C90.7154 42.4013 90.4877 42.4463 90.2861 42.5363C90.0845 42.6188 89.9127 42.7388 89.7709 42.8963C89.629 43.0538 89.5207 43.2413 89.4461 43.4588C89.3714 43.6763 89.3341 43.9125 89.3341 44.1675ZM96.4269 44.2013C96.4269 43.8488 96.4792 43.5075 96.5837 43.1775C96.6883 42.84 96.8376 42.5438 97.0317 42.2888C97.2333 42.0263 97.4797 41.82 97.7709 41.67C98.0621 41.5125 98.3944 41.4338 98.7677 41.4338C99.0813 41.4338 99.3576 41.52 99.5965 41.6925C99.8355 41.865 99.9699 42.0938 99.9997 42.3788C99.9997 42.2963 99.9997 42.18 99.9997 42.03C99.9997 41.8725 99.9997 41.6963 99.9997 41.5013C100.007 41.3063 100.011 41.1075 100.011 40.905C100.011 40.695 100.011 40.4925 100.011 40.2975C100.018 40.1025 100.022 39.93 100.022 39.78C100.022 39.6225 100.022 39.5025 100.022 39.42C100.022 39.06 100.153 38.88 100.414 38.88C100.519 38.88 100.59 38.9325 100.627 39.0375C100.672 39.1425 100.694 39.255 100.694 39.375C100.694 39.435 100.694 39.54 100.694 39.69C100.694 39.8325 100.69 39.9863 100.683 40.1513C100.683 40.3088 100.683 40.4588 100.683 40.6013C100.683 40.7438 100.683 40.8488 100.683 40.9163C100.668 41.4488 100.657 41.9025 100.649 42.2775C100.642 42.645 100.634 42.9488 100.627 43.1888C100.627 43.4288 100.623 43.6163 100.616 43.7513C100.616 43.8863 100.616 43.9875 100.616 44.055C100.616 44.115 100.616 44.1525 100.616 44.1675C100.616 44.1825 100.616 44.1938 100.616 44.2013L100.605 45.09C100.605 45.285 100.597 45.4688 100.582 45.6413C100.575 45.8063 100.556 45.9525 100.526 46.08C100.496 46.2 100.451 46.2975 100.392 46.3725C100.332 46.4475 100.254 46.485 100.157 46.485C100.074 46.485 100.007 46.425 99.9549 46.305C99.9027 46.185 99.8579 46.0688 99.8205 45.9563C99.7309 46.0463 99.6189 46.125 99.4845 46.1925C99.3501 46.2525 99.212 46.305 99.0701 46.35C98.9283 46.3875 98.7864 46.4175 98.6445 46.44C98.5101 46.4625 98.3944 46.4738 98.2973 46.4738C97.9837 46.4738 97.7075 46.4213 97.4685 46.3163C97.2371 46.2038 97.0429 46.0463 96.8861 45.8438C96.7293 45.6413 96.6136 45.4013 96.5389 45.1238C96.4643 44.8463 96.4269 44.5388 96.4269 44.2013ZM97.1437 44.1675C97.1437 44.6025 97.2669 44.9438 97.5133 45.1913C97.7597 45.4313 98.0621 45.5513 98.4205 45.5513C98.6371 45.5513 98.8312 45.5288 99.0025 45.4838C99.1742 45.4313 99.3203 45.3713 99.4397 45.3038C99.5592 45.2363 99.6525 45.165 99.7197 45.09C99.7944 45.015 99.8392 44.9475 99.8541 44.8875C99.8915 44.76 99.9101 44.625 99.9101 44.4825C99.9176 44.34 99.9213 44.2013 99.9213 44.0663V43.7625C99.9213 43.5825 99.8877 43.4138 99.8205 43.2563C99.7608 43.0913 99.6787 42.945 99.5741 42.8175C99.4696 42.69 99.3464 42.5888 99.2045 42.5138C99.0701 42.4388 98.9283 42.4013 98.7789 42.4013C98.5251 42.4013 98.2973 42.4463 98.0957 42.5363C97.8941 42.6188 97.7224 42.7388 97.5805 42.8963C97.4387 43.0538 97.3304 43.2413 97.2557 43.4588C97.1811 43.6763 97.1437 43.9125 97.1437 44.1675ZM102.349 44.7525C102.409 44.9475 102.509 45.1013 102.651 45.2138C102.793 45.3263 102.95 45.4088 103.122 45.4613C103.293 45.5138 103.465 45.5475 103.637 45.5625C103.809 45.57 103.958 45.5738 104.085 45.5738C104.212 45.5738 104.339 45.555 104.466 45.5175C104.593 45.48 104.712 45.4388 104.824 45.3938C104.944 45.3488 105.052 45.3075 105.149 45.27C105.253 45.2325 105.339 45.2138 105.407 45.2138C105.66 45.2138 105.787 45.3788 105.787 45.7088C105.787 45.9038 105.698 46.0538 105.519 46.1588C105.347 46.2638 105.141 46.3425 104.903 46.395C104.671 46.4475 104.44 46.4775 104.208 46.485C103.984 46.5 103.82 46.5075 103.715 46.5075C103.461 46.5075 103.211 46.4513 102.965 46.3388C102.719 46.2263 102.498 46.0688 102.304 45.8663C102.117 45.6638 101.964 45.4275 101.845 45.1575C101.733 44.8875 101.677 44.595 101.677 44.28C101.677 43.845 101.729 43.4475 101.834 43.0875C101.946 42.7275 102.103 42.4163 102.304 42.1538C102.506 41.8913 102.756 41.6888 103.055 41.5463C103.353 41.3963 103.693 41.3213 104.074 41.3213C104.26 41.3213 104.455 41.3588 104.656 41.4338C104.858 41.5013 105.037 41.6063 105.194 41.7488C105.358 41.8838 105.492 42.0563 105.597 42.2663C105.701 42.4688 105.754 42.705 105.754 42.975C105.754 43.1475 105.728 43.2938 105.675 43.4138C105.623 43.5338 105.552 43.6088 105.463 43.6388L102.349 44.7525ZM102.304 43.9763C102.513 43.9163 102.748 43.8375 103.01 43.74C103.279 43.635 103.547 43.53 103.816 43.425C104.085 43.3125 104.335 43.2075 104.567 43.11C104.805 43.005 105 42.9225 105.149 42.8625C105.052 42.6525 104.888 42.5063 104.656 42.4238C104.432 42.3338 104.189 42.2888 103.928 42.2888C103.824 42.2888 103.689 42.3225 103.525 42.39C103.361 42.45 103.193 42.5475 103.021 42.6825C102.857 42.8175 102.707 42.9938 102.573 43.2113C102.439 43.4213 102.349 43.6763 102.304 43.9763ZM109.673 39.4875C109.673 39.2775 109.703 39.0975 109.762 38.9475C109.822 38.7975 109.919 38.7225 110.054 38.7225C110.151 38.7225 110.225 38.7788 110.278 38.8913C110.33 38.9963 110.356 39.1013 110.356 39.2063L110.289 44.1675C110.289 44.325 110.289 44.4825 110.289 44.64C110.296 44.7975 110.311 44.94 110.334 45.0675C110.356 45.1875 110.386 45.285 110.423 45.36C110.468 45.435 110.524 45.4725 110.591 45.4725C110.636 45.4725 110.673 45.4613 110.703 45.4388C110.741 45.4088 110.774 45.3788 110.804 45.3488C110.834 45.3188 110.864 45.2925 110.894 45.27C110.931 45.24 110.972 45.225 111.017 45.225C111.121 45.225 111.192 45.2775 111.23 45.3825C111.274 45.4875 111.297 45.5963 111.297 45.7088C111.297 45.8213 111.271 45.9225 111.218 46.0125C111.166 46.095 111.103 46.17 111.028 46.2375C110.961 46.2975 110.886 46.3463 110.804 46.3838C110.722 46.4138 110.647 46.4288 110.58 46.4288C110.229 46.4288 109.979 46.32 109.83 46.1025C109.68 45.8775 109.609 45.5625 109.617 45.1575L109.673 39.4875ZM111.849 44.0213C111.849 43.5488 111.912 43.1475 112.039 42.8175C112.166 42.4875 112.334 42.2213 112.543 42.0188C112.752 41.8088 112.988 41.6588 113.249 41.5688C113.51 41.4713 113.775 41.4225 114.044 41.4225C114.664 41.4225 115.145 41.6588 115.489 42.1313C115.832 42.5963 116.004 43.2263 116.004 44.0213C116.004 44.3963 115.944 44.7375 115.825 45.045C115.705 45.345 115.549 45.6075 115.354 45.8325C115.16 46.05 114.936 46.2188 114.682 46.3388C114.436 46.4588 114.182 46.5188 113.921 46.5188C113.637 46.5188 113.368 46.4438 113.114 46.2938C112.868 46.1363 112.648 45.9375 112.454 45.6975C112.267 45.4575 112.118 45.1913 112.006 44.8988C111.901 44.5988 111.849 44.3063 111.849 44.0213ZM113.865 45.5625C114.052 45.5625 114.231 45.5288 114.402 45.4613C114.582 45.3863 114.738 45.2813 114.873 45.1463C115.015 45.0113 115.127 44.8463 115.209 44.6513C115.291 44.4563 115.332 44.2313 115.332 43.9763C115.332 43.7438 115.302 43.53 115.242 43.335C115.183 43.14 115.101 42.975 114.996 42.84C114.892 42.6975 114.768 42.5888 114.626 42.5138C114.485 42.4388 114.332 42.4013 114.167 42.4013C113.973 42.4013 113.775 42.435 113.574 42.5025C113.38 42.5625 113.204 42.6563 113.047 42.7838C112.89 42.9038 112.76 43.0613 112.655 43.2563C112.558 43.4438 112.51 43.6613 112.51 43.9088C112.51 44.1113 112.547 44.3138 112.622 44.5163C112.696 44.7113 112.797 44.8875 112.924 45.045C113.051 45.2025 113.197 45.33 113.361 45.4275C113.525 45.5175 113.693 45.5625 113.865 45.5625ZM117.217 45.6188C117.217 45.5738 117.224 45.5213 117.239 45.4613C117.262 45.3938 117.288 45.3338 117.318 45.2813C117.355 45.2213 117.392 45.1725 117.43 45.135C117.467 45.09 117.508 45.0675 117.553 45.0675C117.583 45.0675 117.624 45.1013 117.676 45.1688C117.743 45.2588 117.807 45.33 117.867 45.3825C117.934 45.4275 118.001 45.465 118.068 45.495C118.143 45.525 118.225 45.5438 118.315 45.5513C118.412 45.5588 118.524 45.5625 118.651 45.5625C118.792 45.5625 118.942 45.5475 119.099 45.5175C119.255 45.4875 119.397 45.4538 119.524 45.4163C119.651 45.3788 119.756 45.3375 119.838 45.2925C119.927 45.2475 119.972 45.2138 119.972 45.1913C119.972 45.1163 119.897 45.0563 119.748 45.0113C119.606 44.9588 119.423 44.91 119.199 44.865C118.975 44.82 118.736 44.7638 118.483 44.6963C118.229 44.6288 117.99 44.5388 117.766 44.4263C117.542 44.3063 117.355 44.1563 117.206 43.9763C117.064 43.7888 116.993 43.5525 116.993 43.2675C116.993 42.9525 117.056 42.675 117.183 42.435C117.318 42.1875 117.489 41.9813 117.699 41.8163C117.908 41.6438 118.139 41.5163 118.393 41.4338C118.647 41.3438 118.897 41.2988 119.143 41.2988C119.494 41.2988 119.774 41.3963 119.983 41.5913C120.192 41.7863 120.297 42.0113 120.297 42.2663C120.297 42.3563 120.293 42.4538 120.286 42.5588C120.286 42.6638 120.275 42.765 120.252 42.8625C120.23 42.9525 120.196 43.0313 120.151 43.0988C120.107 43.1588 120.039 43.1888 119.95 43.1888C119.868 43.1888 119.815 43.1475 119.793 43.065C119.771 42.9825 119.759 42.8775 119.759 42.75C119.759 42.5775 119.692 42.4613 119.558 42.4013C119.431 42.3413 119.252 42.3113 119.02 42.3113C118.893 42.3113 118.751 42.3375 118.595 42.39C118.445 42.435 118.303 42.5025 118.169 42.5925C118.035 42.675 117.919 42.7725 117.822 42.885C117.732 42.99 117.687 43.0988 117.687 43.2113C117.687 43.3463 117.758 43.4475 117.9 43.515C118.049 43.575 118.236 43.6275 118.46 43.6725C118.684 43.7175 118.923 43.7663 119.177 43.8188C119.431 43.8638 119.67 43.935 119.894 44.0325C120.118 44.13 120.301 44.265 120.443 44.4375C120.592 44.61 120.667 44.8425 120.667 45.135C120.667 45.3975 120.584 45.6225 120.42 45.81C120.256 45.99 120.058 46.1363 119.827 46.2488C119.603 46.3613 119.367 46.44 119.121 46.485C118.882 46.5375 118.688 46.5638 118.539 46.5638C118.427 46.5638 118.296 46.5525 118.147 46.53C117.997 46.515 117.852 46.4738 117.71 46.4063C117.575 46.3388 117.46 46.245 117.363 46.125C117.265 45.9975 117.217 45.8288 117.217 45.6188ZM124.266 44.0438C124.266 43.6838 124.307 43.335 124.39 42.9975C124.472 42.66 124.573 42.3225 124.692 41.985C124.759 41.79 124.86 41.5838 124.994 41.3663C125.129 41.1413 125.289 40.935 125.476 40.7475C125.663 40.5525 125.864 40.3913 126.081 40.2638C126.305 40.1363 126.536 40.0725 126.775 40.0725C126.984 40.0725 127.193 40.11 127.402 40.185C127.611 40.26 127.794 40.3725 127.951 40.5225C128.115 40.665 128.246 40.8488 128.343 41.0738C128.448 41.2913 128.5 41.5425 128.5 41.8275C128.5 41.895 128.489 41.9738 128.466 42.0638C128.451 42.1463 128.425 42.2288 128.388 42.3113C128.358 42.3863 128.313 42.45 128.254 42.5025C128.194 42.555 128.127 42.5813 128.052 42.5813C127.947 42.5813 127.877 42.5438 127.839 42.4688C127.809 42.3938 127.791 42.3 127.783 42.1875C127.776 42.0675 127.765 41.9438 127.75 41.8163C127.742 41.6813 127.709 41.5575 127.649 41.445C127.589 41.325 127.492 41.2275 127.358 41.1525C127.231 41.0775 127.04 41.04 126.786 41.04C126.577 41.04 126.387 41.0963 126.215 41.2088C126.043 41.3213 125.89 41.4675 125.756 41.6475C125.629 41.82 125.517 42.0188 125.42 42.2438C125.323 42.4613 125.245 42.6825 125.185 42.9075C125.125 43.125 125.08 43.335 125.05 43.5375C125.021 43.74 125.006 43.905 125.006 44.0325C125.006 44.2725 125.05 44.4825 125.14 44.6625C125.237 44.8425 125.36 44.9963 125.51 45.1238C125.666 45.2513 125.838 45.3488 126.025 45.4163C126.219 45.4763 126.417 45.5063 126.618 45.5063C126.715 45.5063 126.831 45.5025 126.966 45.495C127.1 45.4875 127.238 45.4725 127.38 45.45C127.522 45.4275 127.66 45.4013 127.794 45.3713C127.929 45.3413 128.048 45.3038 128.153 45.2588C128.272 45.1538 128.362 45.075 128.422 45.0225C128.481 44.97 128.53 44.9438 128.567 44.9438C128.672 44.9438 128.758 44.9925 128.825 45.09C128.892 45.1875 128.926 45.3113 128.926 45.4613C128.926 45.6563 128.847 45.8213 128.69 45.9563C128.541 46.0838 128.354 46.1888 128.13 46.2713C127.906 46.3463 127.664 46.3988 127.402 46.4288C127.141 46.4663 126.906 46.485 126.697 46.485C126.406 46.485 126.114 46.4513 125.823 46.3838C125.539 46.3163 125.282 46.1925 125.05 46.0125C124.819 45.8325 124.629 45.585 124.479 45.27C124.337 44.9475 124.266 44.5388 124.266 44.0438ZM129.487 44.4713C129.487 44.1038 129.551 43.74 129.678 43.38C129.805 43.0125 129.98 42.6863 130.204 42.4013C130.428 42.1088 130.686 41.8763 130.977 41.7038C131.276 41.5238 131.593 41.4338 131.929 41.4338C132.183 41.4338 132.422 41.4938 132.646 41.6138C132.877 41.7338 133.075 41.8913 133.239 42.0863C133.404 42.2738 133.534 42.4913 133.631 42.7388C133.729 42.9788 133.777 43.2188 133.777 43.4588C133.777 43.5863 133.77 43.71 133.755 43.83C133.74 43.9425 133.721 44.0588 133.699 44.1788C133.684 44.2913 133.669 44.4113 133.654 44.5388C133.639 44.6663 133.631 44.8088 133.631 44.9663C133.631 45.1763 133.661 45.3225 133.721 45.405C133.781 45.4875 133.867 45.5288 133.979 45.5288C134.046 45.5288 134.109 45.4913 134.169 45.4163C134.236 45.3413 134.296 45.2963 134.348 45.2813C134.542 45.2813 134.639 45.4238 134.639 45.7088C134.639 45.7988 134.621 45.8888 134.583 45.9788C134.546 46.0688 134.494 46.1513 134.427 46.2263C134.359 46.2938 134.281 46.3538 134.191 46.4063C134.102 46.4513 134.005 46.4738 133.9 46.4738C133.796 46.4738 133.691 46.4438 133.587 46.3838C133.49 46.3238 133.4 46.2488 133.318 46.1588C133.236 46.0613 133.169 45.9525 133.116 45.8325C133.064 45.705 133.038 45.5738 133.038 45.4388C132.814 45.7238 132.56 45.975 132.276 46.1925C132 46.41 131.694 46.5188 131.358 46.5188C131.141 46.5188 130.921 46.4663 130.697 46.3613C130.481 46.2563 130.283 46.1138 130.103 45.9338C129.924 45.7463 129.775 45.5288 129.655 45.2813C129.543 45.0263 129.487 44.7563 129.487 44.4713ZM130.182 44.4375C130.182 44.6025 130.219 44.7525 130.294 44.8875C130.376 45.0225 130.481 45.1388 130.607 45.2363C130.742 45.3263 130.887 45.3975 131.044 45.45C131.209 45.5025 131.369 45.5288 131.526 45.5288C131.854 45.5288 132.116 45.4575 132.31 45.315C132.504 45.165 132.657 44.9813 132.769 44.7638C132.881 44.5388 132.959 44.2988 133.004 44.0438C133.049 43.7813 133.09 43.5338 133.127 43.3013C133.127 43.2188 133.086 43.1288 133.004 43.0313C132.93 42.9263 132.836 42.8325 132.724 42.75C132.612 42.66 132.489 42.585 132.355 42.525C132.228 42.465 132.112 42.435 132.007 42.435C131.731 42.435 131.481 42.495 131.257 42.615C131.033 42.735 130.839 42.8925 130.675 43.0875C130.518 43.275 130.395 43.4888 130.305 43.7288C130.223 43.9688 130.182 44.205 130.182 44.4375ZM135.432 46.4738C135.26 46.4738 135.152 46.3763 135.107 46.1813C135.07 45.9863 135.051 45.72 135.051 45.3825V44.9325L135.129 39.3188C135.129 39.1763 135.152 39.06 135.197 38.97C135.249 38.8725 135.35 38.8238 135.499 38.8238C135.559 38.8238 135.63 38.8613 135.712 38.9363C135.801 39.0038 135.846 39.1013 135.846 39.2288C135.846 39.4163 135.843 39.6 135.835 39.78C135.835 39.96 135.831 40.155 135.824 40.365C135.816 40.5675 135.809 40.7888 135.801 41.0288C135.801 41.2688 135.801 41.5425 135.801 41.85C135.988 41.745 136.179 41.6513 136.373 41.5688C136.574 41.4863 136.783 41.445 137 41.445C138.277 41.445 138.915 42.2513 138.915 43.8638C138.915 44.3513 138.829 44.76 138.657 45.09C138.493 45.42 138.288 45.6863 138.041 45.8888C137.803 46.0913 137.545 46.2375 137.269 46.3275C136.992 46.4175 136.746 46.4625 136.529 46.4625C136.291 46.4625 136.055 46.4213 135.824 46.3388C135.749 46.3388 135.686 46.3613 135.633 46.4063C135.581 46.4513 135.514 46.4738 135.432 46.4738ZM135.869 45.3938C135.936 45.4313 136.037 45.4575 136.171 45.4725C136.305 45.48 136.425 45.4838 136.529 45.4838C136.649 45.4838 136.78 45.465 136.921 45.4275C137.063 45.39 137.201 45.3375 137.336 45.27C137.47 45.2025 137.593 45.1238 137.705 45.0338C137.817 44.9363 137.907 44.835 137.974 44.73C138.041 44.61 138.094 44.4338 138.131 44.2013C138.168 43.9613 138.187 43.7438 138.187 43.5488C138.187 43.3838 138.139 43.2338 138.041 43.0988C137.952 42.9563 137.84 42.8363 137.705 42.7388C137.571 42.6413 137.425 42.5663 137.269 42.5138C137.119 42.4613 136.985 42.435 136.865 42.435C136.776 42.435 136.679 42.45 136.574 42.48C136.47 42.5025 136.369 42.54 136.272 42.5925C136.175 42.6375 136.085 42.6938 136.003 42.7613C135.921 42.8213 135.854 42.885 135.801 42.9525C135.794 43.17 135.79 43.3688 135.79 43.5488C135.79 43.7288 135.79 43.8938 135.79 44.0438C135.79 44.3138 135.79 44.5313 135.79 44.6963C135.798 44.8613 135.805 44.9925 135.813 45.09C135.82 45.18 135.828 45.2475 135.835 45.2925C135.843 45.3375 135.854 45.3713 135.869 45.3938ZM139.583 44.4713C139.583 44.1038 139.646 43.74 139.773 43.38C139.9 43.0125 140.076 42.6863 140.3 42.4013C140.524 42.1088 140.781 41.8763 141.072 41.7038C141.371 41.5238 141.688 41.4338 142.024 41.4338C142.278 41.4338 142.517 41.4938 142.741 41.6138C142.973 41.7338 143.171 41.8913 143.335 42.0863C143.499 42.2738 143.63 42.4913 143.727 42.7388C143.824 42.9788 143.872 43.2188 143.872 43.4588C143.872 43.5863 143.865 43.71 143.85 43.83C143.835 43.9425 143.816 44.0588 143.794 44.1788C143.779 44.2913 143.764 44.4113 143.749 44.5388C143.734 44.6663 143.727 44.8088 143.727 44.9663C143.727 45.1763 143.757 45.3225 143.816 45.405C143.876 45.4875 143.962 45.5288 144.074 45.5288C144.141 45.5288 144.205 45.4913 144.264 45.4163C144.332 45.3413 144.391 45.2963 144.444 45.2813C144.638 45.2813 144.735 45.4238 144.735 45.7088C144.735 45.7988 144.716 45.8888 144.679 45.9788C144.642 46.0688 144.589 46.1513 144.522 46.2263C144.455 46.2938 144.376 46.3538 144.287 46.4063C144.197 46.4513 144.1 46.4738 143.996 46.4738C143.891 46.4738 143.787 46.4438 143.682 46.3838C143.585 46.3238 143.495 46.2488 143.413 46.1588C143.331 46.0613 143.264 45.9525 143.212 45.8325C143.159 45.705 143.133 45.5738 143.133 45.4388C142.909 45.7238 142.655 45.975 142.372 46.1925C142.095 46.41 141.789 46.5188 141.453 46.5188C141.237 46.5188 141.016 46.4663 140.792 46.3613C140.576 46.2563 140.378 46.1138 140.199 45.9338C140.02 45.7463 139.87 45.5288 139.751 45.2813C139.639 45.0263 139.583 44.7563 139.583 44.4713ZM140.277 44.4375C140.277 44.6025 140.315 44.7525 140.389 44.8875C140.471 45.0225 140.576 45.1388 140.703 45.2363C140.837 45.3263 140.983 45.3975 141.14 45.45C141.304 45.5025 141.464 45.5288 141.621 45.5288C141.95 45.5288 142.211 45.4575 142.405 45.315C142.599 45.165 142.752 44.9813 142.864 44.7638C142.976 44.5388 143.055 44.2988 143.1 44.0438C143.144 43.7813 143.186 43.5338 143.223 43.3013C143.223 43.2188 143.182 43.1288 143.1 43.0313C143.025 42.9263 142.932 42.8325 142.82 42.75C142.708 42.66 142.584 42.585 142.45 42.525C142.323 42.465 142.207 42.435 142.103 42.435C141.827 42.435 141.576 42.495 141.352 42.615C141.128 42.735 140.934 42.8925 140.77 43.0875C140.613 43.275 140.49 43.4888 140.4 43.7288C140.318 43.9688 140.277 44.205 140.277 44.4375ZM145.482 39.4875C145.482 39.2775 145.512 39.0975 145.572 38.9475C145.632 38.7975 145.729 38.7225 145.863 38.7225C145.96 38.7225 146.035 38.7788 146.087 38.8913C146.14 38.9963 146.166 39.1013 146.166 39.2063L146.098 44.1675C146.098 44.325 146.098 44.4825 146.098 44.64C146.106 44.7975 146.121 44.94 146.143 45.0675C146.166 45.1875 146.196 45.285 146.233 45.36C146.278 45.435 146.334 45.4725 146.401 45.4725C146.446 45.4725 146.483 45.4613 146.513 45.4388C146.55 45.4088 146.584 45.3788 146.614 45.3488C146.644 45.3188 146.673 45.2925 146.703 45.27C146.741 45.24 146.782 45.225 146.826 45.225C146.931 45.225 147.002 45.2775 147.039 45.3825C147.084 45.4875 147.106 45.5963 147.106 45.7088C147.106 45.8213 147.08 45.9225 147.028 46.0125C146.976 46.095 146.912 46.17 146.838 46.2375C146.77 46.2975 146.696 46.3463 146.614 46.3838C146.532 46.4138 146.457 46.4288 146.39 46.4288C146.039 46.4288 145.789 46.32 145.639 46.1025C145.49 45.8775 145.419 45.5625 145.426 45.1575L145.482 39.4875ZM148.151 39.4875C148.151 39.2775 148.181 39.0975 148.24 38.9475C148.3 38.7975 148.397 38.7225 148.532 38.7225C148.629 38.7225 148.703 38.7788 148.756 38.8913C148.808 38.9963 148.834 39.1013 148.834 39.2063L148.767 44.1675C148.767 44.325 148.767 44.4825 148.767 44.64C148.774 44.7975 148.789 44.94 148.812 45.0675C148.834 45.1875 148.864 45.285 148.901 45.36C148.946 45.435 149.002 45.4725 149.069 45.4725C149.114 45.4725 149.151 45.4613 149.181 45.4388C149.219 45.4088 149.252 45.3788 149.282 45.3488C149.312 45.3188 149.342 45.2925 149.372 45.27C149.409 45.24 149.45 45.225 149.495 45.225C149.599 45.225 149.67 45.2775 149.708 45.3825C149.752 45.4875 149.775 45.5963 149.775 45.7088C149.775 45.8213 149.749 45.9225 149.696 46.0125C149.644 46.095 149.581 46.17 149.506 46.2375C149.439 46.2975 149.364 46.3463 149.282 46.3838C149.2 46.4138 149.125 46.4288 149.058 46.4288C148.707 46.4288 148.457 46.32 148.308 46.1025C148.158 45.8775 148.087 45.5625 148.095 45.1575L148.151 39.4875ZM150.988 44.7525C151.047 44.9475 151.148 45.1013 151.29 45.2138C151.432 45.3263 151.589 45.4088 151.761 45.4613C151.932 45.5138 152.104 45.5475 152.276 45.5625C152.447 45.57 152.597 45.5738 152.724 45.5738C152.851 45.5738 152.978 45.555 153.105 45.5175C153.231 45.48 153.351 45.4388 153.463 45.3938C153.582 45.3488 153.691 45.3075 153.788 45.27C153.892 45.2325 153.978 45.2138 154.045 45.2138C154.299 45.2138 154.426 45.3788 154.426 45.7088C154.426 45.9038 154.337 46.0538 154.157 46.1588C153.986 46.2638 153.78 46.3425 153.541 46.395C153.31 46.4475 153.078 46.4775 152.847 46.485C152.623 46.5 152.459 46.5075 152.354 46.5075C152.1 46.5075 151.85 46.4513 151.604 46.3388C151.357 46.2263 151.137 46.0688 150.943 45.8663C150.756 45.6638 150.603 45.4275 150.484 45.1575C150.372 44.8875 150.316 44.595 150.316 44.28C150.316 43.845 150.368 43.4475 150.473 43.0875C150.585 42.7275 150.741 42.4163 150.943 42.1538C151.145 41.8913 151.395 41.6888 151.693 41.5463C151.992 41.3963 152.332 41.3213 152.713 41.3213C152.899 41.3213 153.093 41.3588 153.295 41.4338C153.497 41.5013 153.676 41.6063 153.833 41.7488C153.997 41.8838 154.131 42.0563 154.236 42.2663C154.34 42.4688 154.393 42.705 154.393 42.975C154.393 43.1475 154.366 43.2938 154.314 43.4138C154.262 43.5338 154.191 43.6088 154.101 43.6388L150.988 44.7525ZM150.943 43.9763C151.152 43.9163 151.387 43.8375 151.649 43.74C151.917 43.635 152.186 43.53 152.455 43.425C152.724 43.3125 152.974 43.2075 153.205 43.11C153.444 43.005 153.638 42.9225 153.788 42.8625C153.691 42.6525 153.526 42.5063 153.295 42.4238C153.071 42.3338 152.828 42.2888 152.567 42.2888C152.462 42.2888 152.328 42.3225 152.164 42.39C151.999 42.45 151.831 42.5475 151.66 42.6825C151.495 42.8175 151.346 42.9938 151.212 43.2113C151.077 43.4213 150.988 43.6763 150.943 43.9763ZM155.517 45.7988C155.517 45.6263 155.517 45.4875 155.517 45.3825C155.525 45.27 155.528 45.1763 155.528 45.1013V44.7863C155.528 44.6888 155.528 44.595 155.528 44.505C155.528 44.4075 155.532 44.2688 155.54 44.0888C155.555 43.9088 155.569 43.6613 155.584 43.3463C155.607 43.0313 155.64 42.5963 155.685 42.0413C155.7 41.8763 155.737 41.745 155.797 41.6475C155.857 41.5425 155.95 41.49 156.077 41.49C156.137 41.49 156.2 41.5313 156.268 41.6138C156.335 41.6888 156.368 41.8388 156.368 42.0638C156.368 42.1013 156.368 42.1425 156.368 42.1875C156.368 42.225 156.365 42.27 156.357 42.3225C156.409 42.15 156.492 42.0038 156.604 41.8838C156.723 41.7638 156.854 41.6663 156.996 41.5913C157.137 41.5163 157.283 41.4638 157.432 41.4338C157.582 41.3963 157.72 41.3775 157.847 41.3775C157.944 41.3775 158.056 41.3888 158.183 41.4113C158.317 41.4263 158.44 41.4638 158.552 41.5238C158.672 41.5763 158.769 41.6588 158.844 41.7713C158.926 41.8763 158.967 42.0188 158.967 42.1988C158.967 42.3638 158.937 42.4988 158.877 42.6038C158.817 42.7088 158.732 42.7613 158.62 42.7613C158.53 42.7613 158.47 42.7425 158.44 42.705C158.418 42.66 158.388 42.6113 158.351 42.5588C158.321 42.5063 158.272 42.4613 158.205 42.4238C158.138 42.3788 158.019 42.3563 157.847 42.3563H157.735C157.197 42.3563 156.82 42.5063 156.604 42.8063C156.387 43.0988 156.279 43.5375 156.279 44.1225V44.3138L156.335 45.9C156.335 45.9375 156.327 45.9863 156.312 46.0463C156.297 46.0988 156.275 46.155 156.245 46.215C156.215 46.275 156.174 46.3275 156.122 46.3725C156.077 46.41 156.017 46.4288 155.943 46.4288C155.771 46.4288 155.655 46.38 155.596 46.2825C155.543 46.1775 155.517 46.0163 155.517 45.7988ZM159.416 44.0213C159.416 43.5488 159.48 43.1475 159.607 42.8175C159.734 42.4875 159.902 42.2213 160.111 42.0188C160.32 41.8088 160.555 41.6588 160.816 41.5688C161.078 41.4713 161.343 41.4225 161.611 41.4225C162.231 41.4225 162.713 41.6588 163.056 42.1313C163.4 42.5963 163.571 43.2263 163.571 44.0213C163.571 44.3963 163.512 44.7375 163.392 45.045C163.273 45.345 163.116 45.6075 162.922 45.8325C162.728 46.05 162.504 46.2188 162.25 46.3388C162.003 46.4588 161.75 46.5188 161.488 46.5188C161.204 46.5188 160.936 46.4438 160.682 46.2938C160.435 46.1363 160.215 45.9375 160.021 45.6975C159.834 45.4575 159.685 45.1913 159.573 44.8988C159.468 44.5988 159.416 44.3063 159.416 44.0213ZM161.432 45.5625C161.619 45.5625 161.798 45.5288 161.97 45.4613C162.149 45.3863 162.306 45.2813 162.44 45.1463C162.582 45.0113 162.694 44.8463 162.776 44.6513C162.858 44.4563 162.899 44.2313 162.899 43.9763C162.899 43.7438 162.87 43.53 162.81 43.335C162.75 43.14 162.668 42.975 162.563 42.84C162.459 42.6975 162.336 42.5888 162.194 42.5138C162.052 42.4388 161.899 42.4013 161.735 42.4013C161.54 42.4013 161.343 42.435 161.141 42.5025C160.947 42.5625 160.771 42.6563 160.615 42.7838C160.458 42.9038 160.327 43.0613 160.223 43.2563C160.126 43.4438 160.077 43.6613 160.077 43.9088C160.077 44.1113 160.114 44.3138 160.189 44.5163C160.264 44.7113 160.364 44.8875 160.491 45.045C160.618 45.2025 160.764 45.33 160.928 45.4275C161.092 45.5175 161.26 45.5625 161.432 45.5625ZM164.784 45.6188C164.784 45.5738 164.792 45.5213 164.807 45.4613C164.829 45.3938 164.855 45.3338 164.885 45.2813C164.922 45.2213 164.96 45.1725 164.997 45.135C165.034 45.09 165.075 45.0675 165.12 45.0675C165.15 45.0675 165.191 45.1013 165.243 45.1688C165.311 45.2588 165.374 45.33 165.434 45.3825C165.501 45.4275 165.568 45.465 165.635 45.495C165.71 45.525 165.792 45.5438 165.882 45.5513C165.979 45.5588 166.091 45.5625 166.218 45.5625C166.36 45.5625 166.509 45.5475 166.666 45.5175C166.823 45.4875 166.965 45.4538 167.091 45.4163C167.218 45.3788 167.323 45.3375 167.405 45.2925C167.495 45.2475 167.539 45.2138 167.539 45.1913C167.539 45.1163 167.465 45.0563 167.315 45.0113C167.174 44.9588 166.991 44.91 166.767 44.865C166.543 44.82 166.304 44.7638 166.05 44.6963C165.796 44.6288 165.557 44.5388 165.333 44.4263C165.109 44.3063 164.922 44.1563 164.773 43.9763C164.631 43.7888 164.56 43.5525 164.56 43.2675C164.56 42.9525 164.624 42.675 164.751 42.435C164.885 42.1875 165.057 41.9813 165.266 41.8163C165.475 41.6438 165.706 41.5163 165.96 41.4338C166.214 41.3438 166.464 41.2988 166.711 41.2988C167.062 41.2988 167.342 41.3963 167.551 41.5913C167.76 41.7863 167.864 42.0113 167.864 42.2663C167.864 42.3563 167.861 42.4538 167.853 42.5588C167.853 42.6638 167.842 42.765 167.819 42.8625C167.797 42.9525 167.763 43.0313 167.719 43.0988C167.674 43.1588 167.607 43.1888 167.517 43.1888C167.435 43.1888 167.383 43.1475 167.36 43.065C167.338 42.9825 167.327 42.8775 167.327 42.75C167.327 42.5775 167.259 42.4613 167.125 42.4013C166.998 42.3413 166.819 42.3113 166.587 42.3113C166.461 42.3113 166.319 42.3375 166.162 42.39C166.013 42.435 165.871 42.5025 165.736 42.5925C165.602 42.675 165.486 42.7725 165.389 42.885C165.299 42.99 165.255 43.0988 165.255 43.2113C165.255 43.3463 165.326 43.4475 165.467 43.515C165.617 43.575 165.803 43.6275 166.027 43.6725C166.251 43.7175 166.49 43.7663 166.744 43.8188C166.998 43.8638 167.237 43.935 167.461 44.0325C167.685 44.13 167.868 44.265 168.01 44.4375C168.159 44.61 168.234 44.8425 168.234 45.135C168.234 45.3975 168.152 45.6225 167.987 45.81C167.823 45.99 167.625 46.1363 167.394 46.2488C167.17 46.3613 166.935 46.44 166.688 46.485C166.449 46.5375 166.255 46.5638 166.106 46.5638C165.994 46.5638 165.863 46.5525 165.714 46.53C165.565 46.515 165.419 46.4738 165.277 46.4063C165.143 46.3388 165.027 46.245 164.93 46.125C164.833 45.9975 164.784 45.8288 164.784 45.6188ZM171.666 44.2013C171.666 43.8488 171.718 43.5075 171.823 43.1775C171.927 42.84 172.076 42.5438 172.271 42.2888C172.472 42.0263 172.719 41.82 173.01 41.67C173.301 41.5125 173.633 41.4338 174.007 41.4338C174.32 41.4338 174.596 41.52 174.835 41.6925C175.074 41.865 175.209 42.0938 175.239 42.3788C175.239 42.2963 175.239 42.18 175.239 42.03C175.239 41.8725 175.239 41.6963 175.239 41.5013C175.246 41.3063 175.25 41.1075 175.25 40.905C175.25 40.695 175.25 40.4925 175.25 40.2975C175.257 40.1025 175.261 39.93 175.261 39.78C175.261 39.6225 175.261 39.5025 175.261 39.42C175.261 39.06 175.392 38.88 175.653 38.88C175.757 38.88 175.828 38.9325 175.866 39.0375C175.911 39.1425 175.933 39.255 175.933 39.375C175.933 39.435 175.933 39.54 175.933 39.69C175.933 39.8325 175.929 39.9863 175.922 40.1513C175.922 40.3088 175.922 40.4588 175.922 40.6013C175.922 40.7438 175.922 40.8488 175.922 40.9163C175.907 41.4488 175.896 41.9025 175.888 42.2775C175.881 42.645 175.873 42.9488 175.866 43.1888C175.866 43.4288 175.862 43.6163 175.855 43.7513C175.855 43.8863 175.855 43.9875 175.855 44.055C175.855 44.115 175.855 44.1525 175.855 44.1675C175.855 44.1825 175.855 44.1938 175.855 44.2013L175.843 45.09C175.843 45.285 175.836 45.4688 175.821 45.6413C175.813 45.8063 175.795 45.9525 175.765 46.08C175.735 46.2 175.69 46.2975 175.631 46.3725C175.571 46.4475 175.492 46.485 175.395 46.485C175.313 46.485 175.246 46.425 175.194 46.305C175.141 46.185 175.097 46.0688 175.059 45.9563C174.97 46.0463 174.858 46.125 174.723 46.1925C174.589 46.2525 174.451 46.305 174.309 46.35C174.167 46.3875 174.025 46.4175 173.883 46.44C173.749 46.4625 173.633 46.4738 173.536 46.4738C173.223 46.4738 172.946 46.4213 172.707 46.3163C172.476 46.2038 172.282 46.0463 172.125 45.8438C171.968 45.6413 171.852 45.4013 171.778 45.1238C171.703 44.8463 171.666 44.5388 171.666 44.2013ZM172.383 44.1675C172.383 44.6025 172.506 44.9438 172.752 45.1913C172.999 45.4313 173.301 45.5513 173.659 45.5513C173.876 45.5513 174.07 45.5288 174.242 45.4838C174.413 45.4313 174.559 45.3713 174.679 45.3038C174.798 45.2363 174.891 45.165 174.959 45.09C175.033 45.015 175.078 44.9475 175.093 44.8875C175.13 44.76 175.149 44.625 175.149 44.4825C175.156 44.34 175.16 44.2013 175.16 44.0663V43.7625C175.16 43.5825 175.127 43.4138 175.059 43.2563C175 43.0913 174.917 42.945 174.813 42.8175C174.708 42.69 174.585 42.5888 174.443 42.5138C174.309 42.4388 174.167 42.4013 174.018 42.4013C173.764 42.4013 173.536 42.4463 173.335 42.5363C173.133 42.6188 172.961 42.7388 172.819 42.8963C172.677 43.0538 172.569 43.2413 172.495 43.4588C172.42 43.6763 172.383 43.9125 172.383 44.1675ZM177.588 44.7525C177.647 44.9475 177.748 45.1013 177.89 45.2138C178.032 45.3263 178.189 45.4088 178.361 45.4613C178.532 45.5138 178.704 45.5475 178.876 45.5625C179.047 45.57 179.197 45.5738 179.324 45.5738C179.451 45.5738 179.578 45.555 179.705 45.5175C179.831 45.48 179.951 45.4388 180.063 45.3938C180.182 45.3488 180.291 45.3075 180.388 45.27C180.492 45.2325 180.578 45.2138 180.645 45.2138C180.899 45.2138 181.026 45.3788 181.026 45.7088C181.026 45.9038 180.937 46.0538 180.757 46.1588C180.586 46.2638 180.38 46.3425 180.141 46.395C179.91 46.4475 179.678 46.4775 179.447 46.485C179.223 46.5 179.059 46.5075 178.954 46.5075C178.7 46.5075 178.45 46.4513 178.204 46.3388C177.957 46.2263 177.737 46.0688 177.543 45.8663C177.356 45.6638 177.203 45.4275 177.084 45.1575C176.972 44.8875 176.916 44.595 176.916 44.28C176.916 43.845 176.968 43.4475 177.073 43.0875C177.185 42.7275 177.341 42.4163 177.543 42.1538C177.745 41.8913 177.995 41.6888 178.293 41.5463C178.592 41.3963 178.932 41.3213 179.313 41.3213C179.499 41.3213 179.693 41.3588 179.895 41.4338C180.097 41.5013 180.276 41.6063 180.433 41.7488C180.597 41.8838 180.731 42.0563 180.836 42.2663C180.94 42.4688 180.993 42.705 180.993 42.975C180.993 43.1475 180.966 43.2938 180.914 43.4138C180.862 43.5338 180.791 43.6088 180.701 43.6388L177.588 44.7525ZM177.543 43.9763C177.752 43.9163 177.987 43.8375 178.249 43.74C178.517 43.635 178.786 43.53 179.055 43.425C179.324 43.3125 179.574 43.2075 179.805 43.11C180.044 43.005 180.238 42.9225 180.388 42.8625C180.291 42.6525 180.126 42.5063 179.895 42.4238C179.671 42.3338 179.428 42.2888 179.167 42.2888C179.062 42.2888 178.928 42.3225 178.764 42.39C178.599 42.45 178.431 42.5475 178.26 42.6825C178.095 42.8175 177.946 42.9938 177.812 43.2113C177.677 43.4213 177.588 43.6763 177.543 43.9763ZM184.778 46.0688C184.778 45.8663 184.785 45.6713 184.8 45.4838C184.815 45.2963 184.841 45.0375 184.878 44.7075C184.878 44.175 184.864 43.6463 184.834 43.1213C184.811 42.5888 184.8 42.0563 184.8 41.5238C184.8 41.0138 184.819 40.6538 184.856 40.4438C184.893 40.2263 184.99 40.1175 185.147 40.1175C185.244 40.1175 185.334 40.1775 185.416 40.2975C185.506 40.4175 185.55 40.5563 185.55 40.7138C185.55 40.7888 185.55 40.8525 185.55 40.905C185.55 40.9575 185.547 41.0138 185.539 41.0738C185.539 41.1263 185.536 41.1863 185.528 41.2538C185.521 41.3213 185.513 41.4 185.506 41.49C185.506 41.73 185.506 41.9775 185.506 42.2325C185.506 42.48 185.509 42.7275 185.517 42.975L185.573 45.3038C185.901 45.3188 186.215 45.3338 186.514 45.3488C186.812 45.3638 187.133 45.3713 187.477 45.3713C187.492 45.3713 187.51 45.3713 187.533 45.3713C187.555 45.3713 187.585 45.3675 187.622 45.36C187.667 45.3525 187.723 45.345 187.79 45.3375C187.865 45.3225 187.962 45.3075 188.082 45.2925C188.179 45.3 188.261 45.3638 188.328 45.4838C188.395 45.5963 188.429 45.7275 188.429 45.8775C188.429 45.945 188.414 46.0125 188.384 46.08C188.362 46.1475 188.328 46.2113 188.283 46.2713C188.246 46.3238 188.201 46.3688 188.149 46.4063C188.104 46.4438 188.059 46.4625 188.014 46.4625C187.776 46.4625 187.525 46.4513 187.264 46.4288C187.003 46.4138 186.723 46.4063 186.424 46.4063C186.305 46.4063 186.181 46.4138 186.054 46.4288C185.935 46.4513 185.804 46.4625 185.662 46.4625C185.648 46.4625 185.625 46.4625 185.595 46.4625C185.573 46.4625 185.536 46.4588 185.483 46.4513C185.438 46.4513 185.371 46.4475 185.282 46.44C185.2 46.4325 185.091 46.4213 184.957 46.4063C184.905 46.4063 184.86 46.3913 184.822 46.3613C184.793 46.3238 184.778 46.2263 184.778 46.0688ZM189.663 44.7525C189.722 44.9475 189.823 45.1013 189.965 45.2138C190.107 45.3263 190.264 45.4088 190.436 45.4613C190.607 45.5138 190.779 45.5475 190.951 45.5625C191.122 45.57 191.272 45.5738 191.399 45.5738C191.526 45.5738 191.653 45.555 191.78 45.5175C191.906 45.48 192.026 45.4388 192.138 45.3938C192.257 45.3488 192.366 45.3075 192.463 45.27C192.567 45.2325 192.653 45.2138 192.72 45.2138C192.974 45.2138 193.101 45.3788 193.101 45.7088C193.101 45.9038 193.012 46.0538 192.832 46.1588C192.661 46.2638 192.455 46.3425 192.216 46.395C191.985 46.4475 191.753 46.4775 191.522 46.485C191.298 46.5 191.134 46.5075 191.029 46.5075C190.775 46.5075 190.525 46.4513 190.279 46.3388C190.032 46.2263 189.812 46.0688 189.618 45.8663C189.431 45.6638 189.278 45.4275 189.159 45.1575C189.047 44.8875 188.991 44.595 188.991 44.28C188.991 43.845 189.043 43.4475 189.148 43.0875C189.26 42.7275 189.416 42.4163 189.618 42.1538C189.82 41.8913 190.07 41.6888 190.368 41.5463C190.667 41.3963 191.007 41.3213 191.388 41.3213C191.574 41.3213 191.768 41.3588 191.97 41.4338C192.172 41.5013 192.351 41.6063 192.508 41.7488C192.672 41.8838 192.806 42.0563 192.911 42.2663C193.015 42.4688 193.068 42.705 193.068 42.975C193.068 43.1475 193.041 43.2938 192.989 43.4138C192.937 43.5338 192.866 43.6088 192.776 43.6388L189.663 44.7525ZM189.618 43.9763C189.827 43.9163 190.062 43.8375 190.324 43.74C190.592 43.635 190.861 43.53 191.13 43.425C191.399 43.3125 191.649 43.2075 191.88 43.11C192.119 43.005 192.313 42.9225 192.463 42.8625C192.366 42.6525 192.201 42.5063 191.97 42.4238C191.746 42.3338 191.503 42.2888 191.242 42.2888C191.137 42.2888 191.003 42.3225 190.839 42.39C190.674 42.45 190.506 42.5475 190.335 42.6825C190.17 42.8175 190.021 42.9938 189.887 43.2113C189.752 43.4213 189.663 43.6763 189.618 43.9763ZM193.935 44.0213C193.935 43.5488 193.998 43.1475 194.125 42.8175C194.252 42.4875 194.42 42.2213 194.629 42.0188C194.838 41.8088 195.073 41.6588 195.335 41.5688C195.596 41.4713 195.861 41.4225 196.13 41.4225C196.75 41.4225 197.231 41.6588 197.575 42.1313C197.918 42.5963 198.09 43.2263 198.09 44.0213C198.09 44.3963 198.03 44.7375 197.911 45.045C197.791 45.345 197.634 45.6075 197.44 45.8325C197.246 46.05 197.022 46.2188 196.768 46.3388C196.522 46.4588 196.268 46.5188 196.007 46.5188C195.723 46.5188 195.454 46.4438 195.2 46.2938C194.954 46.1363 194.734 45.9375 194.539 45.6975C194.353 45.4575 194.203 45.1913 194.091 44.8988C193.987 44.5988 193.935 44.3063 193.935 44.0213ZM195.951 45.5625C196.137 45.5625 196.316 45.5288 196.488 45.4613C196.667 45.3863 196.824 45.2813 196.959 45.1463C197.1 45.0113 197.212 44.8463 197.295 44.6513C197.377 44.4563 197.418 44.2313 197.418 43.9763C197.418 43.7438 197.388 43.53 197.328 43.335C197.268 43.14 197.186 42.975 197.082 42.84C196.977 42.6975 196.854 42.5888 196.712 42.5138C196.57 42.4388 196.417 42.4013 196.253 42.4013C196.059 42.4013 195.861 42.435 195.659 42.5025C195.465 42.5625 195.29 42.6563 195.133 42.7838C194.976 42.9038 194.846 43.0613 194.741 43.2563C194.644 43.4438 194.595 43.6613 194.595 43.9088C194.595 44.1113 194.633 44.3138 194.707 44.5163C194.782 44.7113 194.883 44.8875 195.01 45.045C195.137 45.2025 195.282 45.33 195.447 45.4275C195.611 45.5175 195.779 45.5625 195.951 45.5625ZM196.085 40.815C195.973 40.815 195.902 40.785 195.872 40.725C195.842 40.665 195.827 40.5825 195.827 40.4775V40.3313C195.827 40.2038 195.854 40.1025 195.906 40.0275C195.966 39.9525 196.036 39.8775 196.119 39.8025C196.208 39.72 196.298 39.6075 196.387 39.465C196.484 39.315 196.582 39.1725 196.679 39.0375C196.776 38.895 196.876 38.775 196.981 38.6775C197.086 38.5725 197.19 38.52 197.295 38.52C197.399 38.52 197.489 38.5613 197.563 38.6438C197.638 38.7263 197.675 38.8463 197.675 39.0038C197.675 39.0413 197.646 39.1125 197.586 39.2175C197.526 39.3225 197.448 39.4425 197.351 39.5775C197.261 39.7125 197.156 39.8513 197.037 39.9938C196.925 40.1363 196.809 40.2713 196.69 40.3988C196.57 40.5188 196.458 40.62 196.354 40.7025C196.249 40.7775 196.16 40.815 196.085 40.815ZM199.124 43.8188C199.109 43.6388 199.098 43.4925 199.09 43.38C199.09 43.26 199.087 43.1625 199.079 43.0875C199.079 43.0125 199.079 42.9563 199.079 42.9188C199.079 42.8813 199.079 42.8438 199.079 42.8063V42.6488C199.079 42.5288 199.083 42.4013 199.09 42.2663C199.105 42.1238 199.124 41.9925 199.146 41.8725C199.176 41.7525 199.214 41.6513 199.258 41.5688C199.303 41.4863 199.363 41.445 199.438 41.445C199.699 41.445 199.83 41.6738 199.83 42.1313C199.83 42.2138 199.826 42.3 199.818 42.39C199.811 42.48 199.8 42.5775 199.785 42.6825C199.844 42.465 199.942 42.2775 200.076 42.12C200.218 41.9625 200.371 41.8313 200.535 41.7263C200.699 41.6213 200.86 41.5425 201.017 41.49C201.181 41.4375 201.319 41.4113 201.431 41.4113C201.782 41.4113 202.073 41.4938 202.305 41.6588C202.536 41.8238 202.719 42.0375 202.854 42.3C202.988 42.5625 203.081 42.855 203.134 43.1775C203.186 43.5 203.212 43.8188 203.212 44.1338C203.212 44.3963 203.204 44.67 203.19 44.955C203.182 45.24 203.16 45.5025 203.122 45.7425C203.092 45.975 203.044 46.17 202.977 46.3275C202.91 46.4775 202.82 46.5525 202.708 46.5525C202.596 46.5525 202.499 46.5225 202.417 46.4625C202.342 46.41 202.305 46.2488 202.305 45.9788C202.305 45.8438 202.316 45.7163 202.338 45.5963C202.361 45.4688 202.383 45.3413 202.406 45.2138C202.435 45.0863 202.462 44.9588 202.484 44.8313C202.506 44.6963 202.518 44.5575 202.518 44.415C202.518 44.2125 202.503 43.995 202.473 43.7625C202.45 43.53 202.394 43.3125 202.305 43.11C202.215 42.9075 202.088 42.7388 201.924 42.6038C201.76 42.4688 201.539 42.4013 201.263 42.4013C201.159 42.4013 201.039 42.4275 200.905 42.48C200.77 42.525 200.636 42.5925 200.502 42.6825C200.367 42.765 200.236 42.8663 200.11 42.9863C199.99 43.1063 199.886 43.2375 199.796 43.38C199.796 43.5525 199.792 43.7475 199.785 43.965C199.777 44.175 199.774 44.3588 199.774 44.5163C199.774 44.7563 199.8 44.9813 199.852 45.1913C199.912 45.4013 199.942 45.6263 199.942 45.8663C199.942 46.0313 199.923 46.1738 199.886 46.2938C199.848 46.4138 199.747 46.4738 199.583 46.4738C199.523 46.4738 199.464 46.4663 199.404 46.4513C199.352 46.4438 199.299 46.4175 199.247 46.3725C199.202 46.3275 199.165 46.2638 199.135 46.1813C199.113 46.0988 199.102 45.9863 199.102 45.8438L199.124 43.8188Z" fill="white"/>
<path d="M60.0955 53.4825C61.9771 53.4825 63.6795 53.235 65.2027 52.74C66.7707 52.245 68.0923 51.6375 69.1675 50.9175C69.2571 51.0975 69.3019 51.39 69.3019 51.795C69.3019 53.19 68.2043 54.36 66.0091 55.305C63.8139 56.205 61.4171 56.655 58.8187 56.655C56.3547 56.655 54.5179 56.1375 53.3083 55.1025C52.1435 54.0225 51.5611 52.2675 51.5611 49.8375C51.5611 46.7775 52.3451 41.31 53.9131 33.435C50.8667 33.345 47.0811 33.3 42.5563 33.3L30.4603 33.3675C28.6235 39.9375 27.4587 44.235 26.9659 46.26C26.4731 48.24 25.8907 51.03 25.2187 54.63C25.1291 55.125 25.0171 55.44 24.8827 55.575C24.7483 55.665 24.4571 55.7325 24.0091 55.7775C23.4267 55.8225 22.9339 55.9125 22.5307 56.0475C22.1723 56.1375 21.6571 56.3625 20.9851 56.7225L20.5819 56.5875C21.4331 54.3825 22.1275 52.335 22.6651 50.445C23.2475 48.51 24.2331 44.9775 25.6219 39.8475L27.4363 33.3675H27.1003C26.6523 33.3675 26.1819 33.0975 25.6891 32.5575C25.1963 31.9725 24.9499 31.365 24.9499 30.735C24.9499 30.51 25.0171 30.375 25.1515 30.33C25.2859 30.24 25.5771 30.195 26.0251 30.195L28.3099 30.2625L28.9819 27.9C30.2363 23.355 31.0875 20.1375 31.5355 18.2475C31.9835 16.3125 32.2075 14.8275 32.2075 13.7925C32.2075 12.8925 32.0059 12.3075 31.6027 12.0375C31.1995 11.7225 30.5499 11.565 29.6539 11.565C28.8475 11.565 27.7947 11.6325 26.4955 11.7675C25.1963 11.8575 24.1659 11.97 23.4043 12.105C23.2251 11.745 23.0459 11.4075 22.8667 11.0925C22.7323 10.7325 22.6651 10.395 22.6651 10.08C22.6651 9.54001 22.9339 9.27001 23.4715 9.27001C28.9371 9.04501 32.3419 8.88751 33.6859 8.79751C35.0299 8.66251 35.8363 8.59501 36.1051 8.59501C36.5083 8.59501 36.7995 8.64001 36.9787 8.73001C37.1579 8.82001 37.2475 9.00001 37.2475 9.27001C37.2475 9.36001 37.2027 9.58501 37.1131 9.94501L31.2667 30.3975C34.0891 30.5325 38.1435 30.6 43.4299 30.6C46.7451 30.6 50.4635 30.555 54.5851 30.465C56.1083 23.04 57.9899 15.75 60.2299 8.59501C60.4987 7.69501 60.9019 7.04251 61.4395 6.63751C62.3355 6.00751 63.9483 5.26501 66.2779 4.41001C68.6523 3.555 70.4443 3.1275 71.6539 3.1275C72.9083 3.1275 73.5355 3.735 73.5355 4.95001C72.4155 4.95001 70.7355 5.40001 68.4955 6.30001C66.2555 7.15501 64.7995 8.01001 64.1275 8.86501C63.3659 9.81001 62.3803 12.3975 61.1707 16.6275C59.9611 20.8575 58.8411 25.3125 57.8107 29.9925C55.9739 38.4525 55.0555 44.82 55.0555 49.095C55.0555 50.13 55.1675 50.9625 55.3915 51.5925C55.6155 52.1775 56.0859 52.65 56.8027 53.01C57.5195 53.325 58.6171 53.4825 60.0955 53.4825Z" fill="white"/>
</svg>
