<svg width="504" height="144" viewBox="0 0 504 144" fill="none" xmlns="http://www.w3.org/2000/svg">
<path d="M219.914 53.478C220.989 53.766 221.563 54.414 221.635 55.422C221.635 57.15 220.273 60.03 217.549 64.062C214.825 68.022 211.456 71.586 207.442 74.754C203.428 77.922 199.414 79.506 195.4 79.506C192.676 79.506 190.525 78.714 188.949 77.13C187.443 75.474 186.691 73.278 186.691 70.542C186.691 69.606 186.762 68.85 186.906 68.274C185.329 70.866 183.25 73.314 180.669 75.618C178.161 77.85 175.688 78.966 173.251 78.966C171.172 78.966 169.129 78.138 167.122 76.482C165.115 74.826 163.896 73.134 163.466 71.406C163.395 68.166 163.825 64.458 164.757 60.282C165.76 56.106 167.982 48.006 171.423 35.982C171.853 34.614 172.355 33.93 172.928 33.93C173.501 33.93 174.254 34.218 175.186 34.794C176.118 35.37 176.584 35.946 176.584 36.522C176.584 36.81 176.476 37.206 176.261 37.71C176.118 38.214 176.01 38.61 175.939 38.898C171.351 54.45 168.95 64.746 168.735 69.786C169.093 70.722 169.846 71.694 170.993 72.702C172.211 73.638 173.251 74.106 174.111 74.106C175.043 74.106 176.333 73.566 177.981 72.486C179.63 71.334 181.386 69.498 183.25 66.978C185.114 64.386 186.834 61.038 188.411 56.934C190.275 51.966 192.353 44.694 194.647 35.118C194.79 34.326 195.185 33.93 195.83 33.93C196.403 33.93 197.156 34.254 198.088 34.902C199.091 35.478 199.593 36.162 199.593 36.954C199.593 37.602 199.27 38.898 198.625 40.842C197.98 42.786 197.586 44.01 197.443 44.514C195.722 49.554 194.325 54.018 193.249 57.906C192.246 61.722 191.744 65.142 191.744 68.166C191.744 72.846 193.357 75.186 196.582 75.186C198.661 75.186 201.062 74.322 203.786 72.594C206.51 70.794 209.27 68.238 212.065 64.926C214.933 61.614 217.549 57.798 219.914 53.478ZM275.79 53.802C276.722 53.802 277.188 54.738 277.188 56.61C277.188 59.922 275.718 63.414 272.779 67.086C269.912 70.758 266.4 73.854 262.242 76.374C258.157 78.822 254.393 80.046 250.953 80.046C248.157 80.046 246.007 79.182 244.502 77.454C242.996 75.726 242.1 73.494 241.814 70.758C240.022 73.35 237.764 75.474 235.04 77.13C232.316 78.786 229.879 79.614 227.729 79.614C225.865 79.614 224.001 79.002 222.137 77.778C220.345 76.482 218.876 74.934 217.729 73.134C216.582 71.262 215.973 69.498 215.901 67.842L221.17 46.026C221.6 44.298 222.675 42.462 224.395 40.518C226.187 38.502 228.338 36.846 230.847 35.55C233.355 34.254 235.9 33.606 238.481 33.606C241.778 33.606 244.681 34.722 247.19 36.954C247.835 35.226 248.301 34.146 248.587 33.714C248.946 33.282 249.448 33.03 250.093 32.958L255.361 32.418L255.684 32.634C254.25 33.786 253.211 35.586 252.566 38.034C250.344 46.386 248.802 52.542 247.942 56.502C247.154 60.462 246.76 63.954 246.76 66.978C246.76 70.002 247.154 72.234 247.942 73.674C248.731 75.042 250.057 75.726 251.921 75.726C254.214 75.726 256.938 74.79 260.092 72.918C263.318 71.046 266.364 68.454 269.231 65.142C272.098 61.758 274.285 57.978 275.79 53.802ZM228.159 74.538C229.377 74.538 230.847 74.106 232.567 73.242C234.359 72.378 236.008 71.154 237.513 69.57C239.09 67.914 240.165 66.042 240.738 63.954L242.781 55.098C243.068 53.658 243.57 51.354 244.287 48.186C245.003 44.946 245.577 42.462 246.007 40.734C244 38.718 241.563 37.71 238.696 37.71C236.473 37.71 234.466 38.322 232.674 39.546C230.882 40.698 229.413 42.138 228.266 43.866C227.119 45.522 226.402 46.998 226.116 48.294L221.815 67.518C221.958 69.318 222.675 70.938 223.965 72.378C225.256 73.818 226.653 74.538 228.159 74.538ZM243.211 25.182C242.925 25.47 242.495 25.614 241.921 25.614C241.419 25.614 240.953 25.506 240.523 25.29C240.093 25.002 239.878 24.714 239.878 24.426C244.896 19.314 251.741 12.006 260.415 2.502C260.916 1.926 261.526 1.638 262.242 1.638C262.816 1.638 263.676 1.962 264.823 2.61C266.041 3.258 266.651 3.834 266.651 4.338V4.446C266.651 5.166 266.077 5.994 264.93 6.93C264.142 7.65 262.959 8.658 261.382 9.954C253.784 16.362 247.727 21.438 243.211 25.182ZM323.048 52.398C323.765 52.398 324.267 52.722 324.554 53.37C324.912 53.946 325.091 54.63 325.091 55.422C325.091 58.014 323.729 61.29 321.005 65.25C318.282 69.21 314.805 72.666 310.576 75.618C306.419 78.57 302.297 80.046 298.211 80.046C295.631 80.046 293.624 79.398 292.19 78.102C290.828 76.806 290.147 74.826 290.147 72.162C290.147 68.49 291.151 63.522 293.158 57.258C295.165 50.922 296.993 45.666 298.641 41.49C298.355 41.058 298.068 40.842 297.781 40.842C297.494 40.842 297.172 40.95 296.813 41.166C295.523 41.958 293.409 43.722 290.47 46.458C287.531 49.194 284.664 52.074 281.868 55.098C279.073 58.122 277.173 60.57 276.17 62.442C275.023 65.538 274.306 67.518 274.019 68.382C273.733 69.174 273.446 70.506 273.159 72.378L272.191 77.238C272.12 77.454 272.048 77.742 271.976 78.102C271.905 78.39 271.797 78.57 271.654 78.642C271.582 78.714 271.439 78.75 271.224 78.75C270.579 78.75 269.718 78.678 268.643 78.534C267.64 78.39 267.138 78.174 267.138 77.886C267.138 77.022 267.389 75.618 267.891 73.674C268.392 71.73 268.894 69.966 269.396 68.382C269.898 66.798 270.292 65.574 270.579 64.71L271.546 61.686C273.625 54.486 275.023 49.266 275.74 46.026C276.528 42.714 277.281 39.042 277.997 35.01C278.069 34.29 278.571 33.93 279.503 33.93C280.148 33.93 280.865 34.11 281.653 34.47C282.513 34.758 283.015 35.19 283.158 35.766C282.872 37.062 282.334 39.258 281.546 42.354C280.829 45.45 279.933 48.87 278.858 52.614C283.015 47.934 287.316 43.686 291.76 39.87C296.276 36.054 299.286 34.146 300.792 34.146C301.509 34.146 302.369 34.506 303.372 35.226C304.376 35.946 304.985 36.63 305.2 37.278C302.906 43.47 300.72 50.238 298.641 57.582C296.563 64.854 295.523 69.642 295.523 71.946C295.523 74.466 296.957 75.726 299.824 75.726C304.053 75.726 308.318 73.35 312.619 68.598C316.991 63.846 320.468 58.446 323.048 52.398ZM374.369 53.478C375.444 53.766 376.018 54.414 376.089 55.422C376.089 57.15 374.727 60.03 372.004 64.062C369.28 68.022 365.911 71.586 361.897 74.754C357.883 77.922 353.869 79.506 349.854 79.506C347.131 79.506 344.98 78.714 343.403 77.13C341.898 75.474 341.145 73.278 341.145 70.542C341.145 69.606 341.217 68.85 341.36 68.274C339.783 70.866 337.705 73.314 335.124 75.618C332.615 77.85 330.142 78.966 327.705 78.966C325.627 78.966 323.584 78.138 321.577 76.482C319.57 74.826 318.351 73.134 317.921 71.406C317.849 68.166 318.279 64.458 319.211 60.282C320.215 56.106 322.437 48.006 325.877 35.982C326.308 34.614 326.809 33.93 327.383 33.93C327.956 33.93 328.709 34.218 329.641 34.794C330.573 35.37 331.038 35.946 331.038 36.522C331.038 36.81 330.931 37.206 330.716 37.71C330.573 38.214 330.465 38.61 330.393 38.898C325.806 54.45 323.405 64.746 323.189 69.786C323.548 70.722 324.301 71.694 325.447 72.702C326.666 73.638 327.705 74.106 328.565 74.106C329.497 74.106 330.788 73.566 332.436 72.486C334.085 71.334 335.841 69.498 337.705 66.978C339.568 64.386 341.289 61.038 342.866 56.934C344.729 51.966 346.808 44.694 349.102 35.118C349.245 34.326 349.639 33.93 350.285 33.93C350.858 33.93 351.611 34.254 352.542 34.902C353.546 35.478 354.048 36.162 354.048 36.954C354.048 37.602 353.725 38.898 353.08 40.842C352.435 42.786 352.041 44.01 351.897 44.514C350.177 49.554 348.779 54.018 347.704 57.906C346.701 61.722 346.199 65.142 346.199 68.166C346.199 72.846 347.812 75.186 351.037 75.186C353.116 75.186 355.517 74.322 358.241 72.594C360.965 70.794 363.725 68.238 366.52 64.926C369.387 61.614 372.004 57.798 374.369 53.478ZM385.733 79.29C382.005 79.29 378.959 78.426 376.593 76.698C374.228 74.898 372.508 72.954 371.432 70.866C370.357 68.706 369.82 67.23 369.82 66.438C371.97 58.302 373.834 50.238 375.411 42.246C375.697 40.806 376.593 39.474 378.099 38.25C379.676 36.954 381.468 35.91 383.475 35.118C385.553 34.326 387.381 33.93 388.958 33.93C390.535 33.93 392.148 34.326 393.797 35.118C395.517 35.91 396.95 36.918 398.097 38.142C399.244 39.366 399.818 40.662 399.818 42.03C399.818 44.046 398.85 45.81 396.915 47.322L396.377 47.214C396.234 44.838 395.373 42.822 393.797 41.166C392.291 39.438 390.571 38.574 388.636 38.574C386.987 38.574 385.195 39.15 383.26 40.302C381.324 41.382 380.213 42.642 379.926 44.082C378.78 50.13 377.884 54.63 377.238 57.582L375.518 65.682C375.518 66.618 375.912 67.806 376.701 69.246C377.561 70.614 378.815 71.838 380.464 72.918C382.113 73.926 384.156 74.43 386.593 74.43C389.173 74.43 392.22 73.818 395.732 72.594C399.316 71.298 402.9 69.03 406.484 65.79C410.068 62.478 412.971 58.086 415.193 52.614C415.91 52.614 416.376 52.866 416.591 53.37C416.806 53.874 416.913 54.558 416.913 55.422C416.913 58.734 415.229 62.262 411.86 66.006C408.563 69.75 404.441 72.918 399.495 75.51C394.621 78.03 390.033 79.29 385.733 79.29ZM468.72 40.626C469.437 40.842 469.795 41.562 469.795 42.786C469.795 44.586 469.078 46.458 467.645 48.402C466.211 50.274 464.24 51.822 461.731 53.046C459.294 54.27 456.606 54.882 453.667 54.882C449.725 54.882 446.248 53.802 443.238 51.642C442.808 53.73 442.27 55.854 441.625 58.014C441.41 58.806 440.944 60.642 440.227 63.522C439.51 66.33 439.009 68.85 438.722 71.082C438.22 72.234 437.217 73.494 435.711 74.862C434.206 76.158 432.414 77.274 430.335 78.21C428.257 79.146 426.214 79.614 424.207 79.614C421.985 79.614 419.834 79.038 417.756 77.886C415.677 76.734 413.957 75.186 412.595 73.242C411.304 71.298 410.659 69.138 410.659 66.762C411.663 63.738 412.487 60.894 413.132 58.23C413.777 55.566 414.387 52.866 414.96 50.13L416.035 44.73C416.394 43.074 417.361 41.454 418.938 39.87C420.515 38.214 422.415 36.882 424.637 35.874C426.931 34.794 429.224 34.254 431.518 34.254C432.378 34.254 433.597 34.398 435.174 34.686C435.389 33.03 435.747 31.878 436.249 31.23C436.822 30.582 437.718 30.258 438.937 30.258C439.654 30.258 440.478 30.366 441.41 30.582C441.052 32.598 440.872 34.326 440.872 35.766C440.872 39.942 442.127 43.47 444.636 46.35C447.144 49.23 450.549 50.67 454.85 50.67C458.076 50.67 460.835 49.806 463.129 48.078C465.494 46.35 467.358 43.866 468.72 40.626ZM433.991 69.246C434.565 66.366 435.389 63.09 436.464 59.418C437.898 54.594 438.829 50.706 439.26 47.754C437.683 45.738 436.607 43.29 436.034 40.41C436.034 40.122 435.962 39.906 435.819 39.762C435.747 39.546 435.532 39.402 435.174 39.33C434.099 38.898 432.88 38.682 431.518 38.682C428.866 38.682 426.572 39.402 424.637 40.842C422.702 42.282 421.483 44.01 420.981 46.026C420.766 46.89 419.978 50.274 418.616 56.178C417.971 59.634 417.182 63.054 416.25 66.438C416.25 69.102 417.146 71.19 418.938 72.702C420.73 74.142 422.63 74.862 424.637 74.862C426.357 74.862 428.185 74.25 430.12 73.026C432.127 71.802 433.418 70.542 433.991 69.246Z" fill="white"/>
<path d="M158.117 105.705C158.117 104.841 158.216 104.004 158.413 103.194C158.61 102.384 158.852 101.574 159.139 100.764C159.3 100.296 159.542 99.801 159.864 99.279C160.187 98.739 160.572 98.244 161.02 97.794C161.468 97.326 161.952 96.939 162.472 96.633C163.009 96.327 163.565 96.174 164.138 96.174C164.64 96.174 165.142 96.264 165.644 96.444C166.145 96.624 166.584 96.894 166.961 97.254C167.355 97.596 167.668 98.037 167.901 98.577C168.152 99.099 168.278 99.702 168.278 100.386C168.278 100.548 168.251 100.737 168.197 100.953C168.161 101.151 168.099 101.349 168.009 101.547C167.937 101.727 167.83 101.88 167.686 102.006C167.543 102.132 167.382 102.195 167.203 102.195C166.952 102.195 166.781 102.105 166.692 101.925C166.62 101.745 166.575 101.52 166.557 101.25C166.54 100.962 166.513 100.665 166.477 100.359C166.459 100.035 166.378 99.738 166.235 99.468C166.092 99.18 165.859 98.946 165.536 98.766C165.231 98.586 164.774 98.496 164.165 98.496C163.663 98.496 163.206 98.631 162.794 98.901C162.382 99.171 162.015 99.522 161.692 99.954C161.388 100.368 161.119 100.845 160.886 101.385C160.653 101.907 160.465 102.438 160.321 102.978C160.178 103.5 160.07 104.004 159.999 104.49C159.927 104.976 159.891 105.372 159.891 105.678C159.891 106.254 159.999 106.758 160.214 107.19C160.447 107.622 160.742 107.991 161.101 108.297C161.477 108.603 161.889 108.837 162.337 108.999C162.803 109.143 163.278 109.215 163.762 109.215C163.995 109.215 164.273 109.206 164.595 109.188C164.918 109.17 165.249 109.134 165.59 109.08C165.93 109.026 166.262 108.963 166.584 108.891C166.907 108.819 167.194 108.729 167.444 108.621C167.731 108.369 167.946 108.18 168.09 108.054C168.233 107.928 168.349 107.865 168.439 107.865C168.69 107.865 168.896 107.982 169.057 108.216C169.219 108.45 169.299 108.747 169.299 109.107C169.299 109.575 169.111 109.971 168.735 110.295C168.376 110.601 167.928 110.853 167.391 111.051C166.853 111.231 166.271 111.357 165.644 111.429C165.016 111.519 164.452 111.564 163.95 111.564C163.251 111.564 162.552 111.483 161.853 111.321C161.172 111.159 160.554 110.862 159.999 110.43C159.443 109.998 158.986 109.404 158.628 108.648C158.287 107.874 158.117 106.893 158.117 105.705ZM173.254 96.822C173.128 96.822 172.985 96.804 172.824 96.768C172.663 96.732 172.51 96.669 172.367 96.579C172.224 96.471 172.098 96.336 171.991 96.174C171.901 95.994 171.856 95.76 171.856 95.472C171.856 95.274 171.892 95.076 171.964 94.878C172.053 94.68 172.161 94.509 172.286 94.365C172.412 94.203 172.546 94.077 172.689 93.987C172.851 93.879 173.003 93.825 173.146 93.825C173.433 93.825 173.711 93.924 173.98 94.122C174.266 94.32 174.41 94.707 174.41 95.283C174.41 96.309 174.024 96.822 173.254 96.822ZM171.749 110.403C171.731 110.313 171.704 110.097 171.668 109.755C171.65 109.395 171.641 108.756 171.641 107.838C171.641 107.478 171.641 107.019 171.641 106.461C171.641 105.885 171.65 105.291 171.668 104.679C171.704 104.049 171.749 103.419 171.802 102.789C171.874 102.159 171.955 101.592 172.044 101.088C172.152 100.584 172.286 100.179 172.448 99.873C172.609 99.549 172.806 99.387 173.039 99.387C173.326 99.387 173.496 99.513 173.55 99.765C173.621 100.017 173.657 100.314 173.657 100.656C173.621 101.412 173.568 102.267 173.496 103.221C173.424 104.157 173.388 105.075 173.388 105.975C173.388 106.641 173.442 107.379 173.55 108.189C173.657 108.981 173.711 109.692 173.711 110.322C173.711 110.754 173.621 111.087 173.442 111.321C173.263 111.537 173.075 111.645 172.878 111.645C172.573 111.645 172.331 111.555 172.152 111.375C171.973 111.195 171.838 110.871 171.749 110.403ZM180.179 111.726C179.265 111.726 178.53 111.501 177.975 111.051C177.437 110.583 177.025 110.016 176.738 109.35C176.452 108.684 176.263 107.982 176.174 107.244C176.102 106.488 176.066 105.822 176.066 105.246C176.066 104.688 176.084 104.076 176.12 103.41C176.174 102.744 176.263 102.123 176.389 101.547C176.514 100.953 176.676 100.458 176.873 100.062C177.088 99.666 177.348 99.468 177.652 99.468C177.903 99.468 178.073 99.549 178.163 99.711C178.27 99.873 178.324 100.089 178.324 100.359C178.324 100.629 178.288 100.944 178.217 101.304C178.163 101.646 178.1 102.015 178.028 102.411C177.957 102.807 177.885 103.221 177.813 103.653C177.76 104.085 177.733 104.517 177.733 104.949C177.733 105.291 177.76 105.714 177.813 106.218C177.867 106.722 177.975 107.208 178.136 107.676C178.297 108.126 178.53 108.522 178.835 108.864C179.14 109.188 179.552 109.35 180.071 109.35C180.484 109.35 180.851 109.269 181.173 109.107C181.514 108.927 181.819 108.711 182.087 108.459C182.356 108.189 182.589 107.892 182.786 107.568C183.001 107.244 183.207 106.929 183.404 106.623C183.44 106.047 183.467 105.561 183.485 105.165C183.521 104.751 183.548 104.355 183.566 103.977L183.62 100.521C183.62 100.107 183.727 99.828 183.942 99.684C184.157 99.54 184.345 99.468 184.507 99.468C184.668 99.468 184.829 99.549 184.99 99.711C185.152 99.873 185.232 100.116 185.232 100.44L185.071 110.322C185.053 110.79 184.981 111.105 184.856 111.267C184.731 111.429 184.533 111.51 184.265 111.51C184.103 111.51 183.96 111.483 183.835 111.429C183.709 111.393 183.611 111.312 183.539 111.186C183.467 111.042 183.413 110.844 183.378 110.592C183.342 110.322 183.324 109.971 183.324 109.539C183.324 109.395 183.324 109.233 183.324 109.053C183.324 108.873 183.333 108.684 183.351 108.486C183.243 108.954 183.073 109.386 182.84 109.782C182.625 110.178 182.365 110.52 182.06 110.808C181.774 111.096 181.469 111.321 181.147 111.483C180.824 111.645 180.501 111.726 180.179 111.726ZM187.481 106.083C187.481 105.237 187.607 104.418 187.858 103.626C188.108 102.816 188.467 102.105 188.933 101.493C189.417 100.863 190.008 100.368 190.707 100.008C191.406 99.63 192.203 99.441 193.099 99.441C193.852 99.441 194.515 99.648 195.088 100.062C195.662 100.476 195.984 101.025 196.056 101.709C196.056 101.511 196.056 101.232 196.056 100.872C196.056 100.494 196.056 100.071 196.056 99.603C196.074 99.135 196.083 98.658 196.083 98.172C196.083 97.668 196.083 97.182 196.083 96.714C196.101 96.246 196.11 95.832 196.11 95.472C196.11 95.094 196.11 94.806 196.11 94.608C196.11 93.744 196.423 93.312 197.051 93.312C197.301 93.312 197.472 93.438 197.561 93.69C197.669 93.942 197.723 94.212 197.723 94.5C197.723 94.644 197.723 94.896 197.723 95.256C197.723 95.598 197.714 95.967 197.696 96.363C197.696 96.741 197.696 97.101 197.696 97.443C197.696 97.785 197.696 98.037 197.696 98.199C197.66 99.477 197.633 100.566 197.615 101.466C197.597 102.348 197.579 103.077 197.561 103.653C197.561 104.229 197.552 104.679 197.534 105.003C197.534 105.327 197.534 105.57 197.534 105.732C197.534 105.876 197.534 105.966 197.534 106.002C197.534 106.038 197.534 106.065 197.534 106.083L197.508 108.216C197.508 108.684 197.49 109.125 197.454 109.539C197.436 109.935 197.391 110.286 197.319 110.592C197.248 110.88 197.14 111.114 196.997 111.294C196.853 111.474 196.665 111.564 196.432 111.564C196.235 111.564 196.074 111.42 195.948 111.132C195.823 110.844 195.716 110.565 195.626 110.295C195.411 110.511 195.142 110.7 194.82 110.862C194.497 111.006 194.165 111.132 193.825 111.24C193.484 111.33 193.144 111.402 192.804 111.456C192.481 111.51 192.203 111.537 191.97 111.537C191.218 111.537 190.555 111.411 189.981 111.159C189.426 110.889 188.96 110.511 188.583 110.025C188.207 109.539 187.929 108.963 187.75 108.297C187.571 107.631 187.481 106.893 187.481 106.083ZM189.202 106.002C189.202 107.046 189.497 107.865 190.089 108.459C190.68 109.035 191.406 109.323 192.266 109.323C192.786 109.323 193.252 109.269 193.664 109.161C194.076 109.035 194.425 108.891 194.712 108.729C194.999 108.567 195.223 108.396 195.384 108.216C195.563 108.036 195.671 107.874 195.707 107.73C195.796 107.424 195.841 107.1 195.841 106.758C195.859 106.416 195.868 106.083 195.868 105.759V105.03C195.868 104.598 195.787 104.193 195.626 103.815C195.483 103.419 195.285 103.068 195.035 102.762C194.784 102.456 194.488 102.213 194.148 102.033C193.825 101.853 193.484 101.763 193.126 101.763C192.517 101.763 191.97 101.871 191.486 102.087C191.003 102.285 190.59 102.573 190.25 102.951C189.909 103.329 189.65 103.779 189.47 104.301C189.291 104.823 189.202 105.39 189.202 106.002ZM199.732 106.731C199.732 105.849 199.884 104.976 200.189 104.112C200.493 103.23 200.915 102.447 201.452 101.763C201.99 101.061 202.608 100.503 203.307 100.089C204.024 99.657 204.785 99.441 205.592 99.441C206.201 99.441 206.774 99.585 207.312 99.873C207.868 100.161 208.342 100.539 208.737 101.007C209.131 101.457 209.444 101.979 209.677 102.573C209.91 103.149 210.027 103.725 210.027 104.301C210.027 104.607 210.009 104.904 209.973 105.192C209.937 105.462 209.892 105.741 209.839 106.029C209.803 106.299 209.767 106.587 209.731 106.893C209.695 107.199 209.677 107.541 209.677 107.919C209.677 108.423 209.749 108.774 209.893 108.972C210.036 109.17 210.242 109.269 210.511 109.269C210.672 109.269 210.824 109.179 210.968 108.999C211.129 108.819 211.272 108.711 211.398 108.675C211.864 108.675 212.097 109.017 212.097 109.701C212.097 109.917 212.052 110.133 211.962 110.349C211.873 110.565 211.747 110.763 211.586 110.943C211.425 111.105 211.236 111.249 211.021 111.375C210.806 111.483 210.573 111.537 210.323 111.537C210.072 111.537 209.821 111.465 209.57 111.321C209.337 111.177 209.122 110.997 208.925 110.781C208.728 110.547 208.566 110.286 208.441 109.998C208.316 109.692 208.253 109.377 208.253 109.053C207.715 109.737 207.106 110.34 206.425 110.862C205.762 111.384 205.027 111.645 204.221 111.645C203.701 111.645 203.172 111.519 202.635 111.267C202.115 111.015 201.64 110.673 201.21 110.241C200.78 109.791 200.422 109.269 200.135 108.675C199.866 108.063 199.732 107.415 199.732 106.731ZM201.398 106.65C201.398 107.046 201.488 107.406 201.667 107.73C201.864 108.054 202.115 108.333 202.42 108.567C202.742 108.783 203.092 108.954 203.468 109.08C203.862 109.206 204.248 109.269 204.624 109.269C205.412 109.269 206.04 109.098 206.506 108.756C206.972 108.396 207.339 107.955 207.608 107.433C207.876 106.893 208.065 106.317 208.172 105.705C208.28 105.075 208.378 104.481 208.468 103.923C208.468 103.725 208.369 103.509 208.172 103.275C207.993 103.023 207.769 102.798 207.5 102.6C207.231 102.384 206.936 102.204 206.613 102.06C206.308 101.916 206.031 101.844 205.78 101.844C205.117 101.844 204.516 101.988 203.979 102.276C203.441 102.564 202.975 102.942 202.581 103.41C202.205 103.86 201.909 104.373 201.694 104.949C201.497 105.525 201.398 106.092 201.398 106.65ZM212.681 106.083C212.681 105.237 212.807 104.418 213.058 103.626C213.308 102.816 213.667 102.105 214.133 101.493C214.617 100.863 215.208 100.368 215.907 100.008C216.606 99.63 217.403 99.441 218.299 99.441C219.052 99.441 219.715 99.648 220.288 100.062C220.862 100.476 221.184 101.025 221.256 101.709C221.256 101.511 221.256 101.232 221.256 100.872C221.256 100.494 221.256 100.071 221.256 99.603C221.274 99.135 221.283 98.658 221.283 98.172C221.283 97.668 221.283 97.182 221.283 96.714C221.301 96.246 221.31 95.832 221.31 95.472C221.31 95.094 221.31 94.806 221.31 94.608C221.31 93.744 221.623 93.312 222.251 93.312C222.501 93.312 222.672 93.438 222.761 93.69C222.869 93.942 222.923 94.212 222.923 94.5C222.923 94.644 222.923 94.896 222.923 95.256C222.923 95.598 222.914 95.967 222.896 96.363C222.896 96.741 222.896 97.101 222.896 97.443C222.896 97.785 222.896 98.037 222.896 98.199C222.86 99.477 222.833 100.566 222.815 101.466C222.797 102.348 222.779 103.077 222.761 103.653C222.761 104.229 222.752 104.679 222.734 105.003C222.734 105.327 222.734 105.57 222.734 105.732C222.734 105.876 222.734 105.966 222.734 106.002C222.734 106.038 222.734 106.065 222.734 106.083L222.708 108.216C222.708 108.684 222.69 109.125 222.654 109.539C222.636 109.935 222.591 110.286 222.519 110.592C222.448 110.88 222.34 111.114 222.197 111.294C222.053 111.474 221.865 111.564 221.632 111.564C221.435 111.564 221.274 111.42 221.148 111.132C221.023 110.844 220.916 110.565 220.826 110.295C220.611 110.511 220.342 110.7 220.02 110.862C219.697 111.006 219.365 111.132 219.025 111.24C218.684 111.33 218.344 111.402 218.004 111.456C217.681 111.51 217.403 111.537 217.17 111.537C216.418 111.537 215.755 111.411 215.181 111.159C214.626 110.889 214.16 110.511 213.783 110.025C213.407 109.539 213.129 108.963 212.95 108.297C212.771 107.631 212.681 106.893 212.681 106.083ZM214.402 106.002C214.402 107.046 214.697 107.865 215.289 108.459C215.88 109.035 216.606 109.323 217.466 109.323C217.986 109.323 218.452 109.269 218.864 109.161C219.276 109.035 219.625 108.891 219.912 108.729C220.199 108.567 220.423 108.396 220.584 108.216C220.763 108.036 220.871 107.874 220.907 107.73C220.996 107.424 221.041 107.1 221.041 106.758C221.059 106.416 221.068 106.083 221.068 105.759V105.03C221.068 104.598 220.987 104.193 220.826 103.815C220.683 103.419 220.485 103.068 220.235 102.762C219.984 102.456 219.688 102.213 219.348 102.033C219.025 101.853 218.684 101.763 218.326 101.763C217.717 101.763 217.17 101.871 216.686 102.087C216.203 102.285 215.79 102.573 215.45 102.951C215.109 103.329 214.85 103.779 214.67 104.301C214.491 104.823 214.402 105.39 214.402 106.002ZM231.424 106.083C231.424 105.237 231.55 104.418 231.801 103.626C232.052 102.816 232.41 102.105 232.876 101.493C233.36 100.863 233.951 100.368 234.65 100.008C235.349 99.63 236.146 99.441 237.042 99.441C237.795 99.441 238.458 99.648 239.032 100.062C239.605 100.476 239.928 101.025 239.999 101.709C239.999 101.511 239.999 101.232 239.999 100.872C239.999 100.494 239.999 100.071 239.999 99.603C240.017 99.135 240.026 98.658 240.026 98.172C240.026 97.668 240.026 97.182 240.026 96.714C240.044 96.246 240.053 95.832 240.053 95.472C240.053 95.094 240.053 94.806 240.053 94.608C240.053 93.744 240.367 93.312 240.994 93.312C241.245 93.312 241.415 93.438 241.504 93.69C241.612 93.942 241.666 94.212 241.666 94.5C241.666 94.644 241.666 94.896 241.666 95.256C241.666 95.598 241.657 95.967 241.639 96.363C241.639 96.741 241.639 97.101 241.639 97.443C241.639 97.785 241.639 98.037 241.639 98.199C241.603 99.477 241.576 100.566 241.558 101.466C241.54 102.348 241.522 103.077 241.504 103.653C241.504 104.229 241.496 104.679 241.478 105.003C241.478 105.327 241.478 105.57 241.478 105.732C241.478 105.876 241.478 105.966 241.478 106.002C241.478 106.038 241.478 106.065 241.478 106.083L241.451 108.216C241.451 108.684 241.433 109.125 241.397 109.539C241.379 109.935 241.334 110.286 241.263 110.592C241.191 110.88 241.083 111.114 240.94 111.294C240.797 111.474 240.608 111.564 240.376 111.564C240.178 111.564 240.017 111.42 239.892 111.132C239.766 110.844 239.659 110.565 239.569 110.295C239.354 110.511 239.085 110.7 238.763 110.862C238.44 111.006 238.109 111.132 237.768 111.24C237.428 111.33 237.087 111.402 236.747 111.456C236.424 111.51 236.146 111.537 235.913 111.537C235.161 111.537 234.498 111.411 233.924 111.159C233.369 110.889 232.903 110.511 232.527 110.025C232.15 109.539 231.872 108.963 231.693 108.297C231.514 107.631 231.424 106.893 231.424 106.083ZM233.145 106.002C233.145 107.046 233.44 107.865 234.032 108.459C234.623 109.035 235.349 109.323 236.209 109.323C236.729 109.323 237.195 109.269 237.606 109.161C238.018 109.035 238.368 108.891 238.655 108.729C238.942 108.567 239.166 108.396 239.327 108.216C239.506 108.036 239.614 107.874 239.65 107.73C239.739 107.424 239.784 107.1 239.784 106.758C239.802 106.416 239.811 106.083 239.811 105.759V105.03C239.811 104.598 239.73 104.193 239.569 103.815C239.426 103.419 239.229 103.068 238.978 102.762C238.727 102.456 238.431 102.213 238.091 102.033C237.768 101.853 237.428 101.763 237.069 101.763C236.46 101.763 235.913 101.871 235.43 102.087C234.946 102.285 234.534 102.573 234.193 102.951C233.853 103.329 233.593 103.779 233.414 104.301C233.234 104.823 233.145 105.39 233.145 106.002ZM245.637 107.406C245.781 107.874 246.023 108.243 246.363 108.513C246.704 108.783 247.08 108.981 247.492 109.107C247.904 109.233 248.316 109.314 248.728 109.35C249.141 109.368 249.499 109.377 249.804 109.377C250.108 109.377 250.413 109.332 250.718 109.242C251.022 109.152 251.309 109.053 251.578 108.945C251.864 108.837 252.124 108.738 252.357 108.648C252.608 108.558 252.814 108.513 252.976 108.513C253.585 108.513 253.889 108.909 253.889 109.701C253.889 110.169 253.674 110.529 253.244 110.781C252.832 111.033 252.339 111.222 251.766 111.348C251.21 111.474 250.655 111.546 250.099 111.564C249.562 111.6 249.168 111.618 248.917 111.618C248.307 111.618 247.707 111.483 247.116 111.213C246.524 110.943 245.996 110.565 245.53 110.079C245.082 109.593 244.714 109.026 244.428 108.378C244.159 107.73 244.024 107.028 244.024 106.272C244.024 105.228 244.15 104.274 244.401 103.41C244.67 102.546 245.046 101.799 245.53 101.169C246.014 100.539 246.614 100.053 247.331 99.711C248.048 99.351 248.863 99.171 249.777 99.171C250.225 99.171 250.691 99.261 251.175 99.441C251.658 99.603 252.088 99.855 252.465 100.197C252.859 100.521 253.182 100.935 253.433 101.439C253.683 101.925 253.809 102.492 253.809 103.14C253.809 103.554 253.746 103.905 253.621 104.193C253.495 104.481 253.325 104.661 253.11 104.733L245.637 107.406ZM245.53 105.543C246.032 105.399 246.596 105.21 247.223 104.976C247.868 104.724 248.513 104.472 249.159 104.22C249.804 103.95 250.404 103.698 250.96 103.464C251.533 103.212 251.999 103.014 252.357 102.87C252.124 102.366 251.73 102.015 251.175 101.817C250.637 101.601 250.055 101.493 249.427 101.493C249.176 101.493 248.854 101.574 248.46 101.736C248.065 101.88 247.662 102.114 247.25 102.438C246.856 102.762 246.497 103.185 246.175 103.707C245.852 104.211 245.637 104.823 245.53 105.543ZM263.215 94.77C263.215 94.266 263.286 93.834 263.43 93.474C263.573 93.114 263.806 92.934 264.128 92.934C264.361 92.934 264.541 93.069 264.666 93.339C264.792 93.591 264.854 93.843 264.854 94.095L264.693 106.002C264.693 106.38 264.693 106.758 264.693 107.136C264.711 107.514 264.747 107.856 264.8 108.162C264.854 108.45 264.926 108.684 265.016 108.864C265.123 109.044 265.257 109.134 265.419 109.134C265.526 109.134 265.616 109.107 265.688 109.053C265.777 108.981 265.858 108.909 265.929 108.837C266.001 108.765 266.073 108.702 266.144 108.648C266.234 108.576 266.333 108.54 266.44 108.54C266.691 108.54 266.861 108.666 266.951 108.918C267.058 109.17 267.112 109.431 267.112 109.701C267.112 109.971 267.049 110.214 266.924 110.43C266.799 110.628 266.646 110.808 266.467 110.97C266.306 111.114 266.127 111.231 265.929 111.321C265.732 111.393 265.553 111.429 265.392 111.429C264.55 111.429 263.949 111.168 263.591 110.646C263.232 110.106 263.062 109.35 263.08 108.378L263.215 94.77ZM268.437 105.651C268.437 104.517 268.589 103.554 268.894 102.762C269.199 101.97 269.602 101.331 270.104 100.845C270.605 100.341 271.17 99.981 271.797 99.765C272.424 99.531 273.061 99.414 273.706 99.414C275.193 99.414 276.349 99.981 277.173 101.115C277.997 102.231 278.41 103.743 278.41 105.651C278.41 106.551 278.266 107.37 277.98 108.108C277.693 108.828 277.316 109.458 276.851 109.998C276.385 110.52 275.847 110.925 275.238 111.213C274.646 111.501 274.037 111.645 273.41 111.645C272.729 111.645 272.084 111.465 271.475 111.105C270.883 110.727 270.355 110.25 269.889 109.674C269.441 109.098 269.082 108.459 268.813 107.757C268.563 107.037 268.437 106.335 268.437 105.651ZM273.276 109.35C273.724 109.35 274.154 109.269 274.566 109.107C274.996 108.927 275.372 108.675 275.695 108.351C276.035 108.027 276.304 107.631 276.501 107.163C276.698 106.695 276.797 106.155 276.797 105.543C276.797 104.985 276.725 104.472 276.582 104.004C276.438 103.536 276.241 103.14 275.99 102.816C275.74 102.474 275.444 102.213 275.103 102.033C274.763 101.853 274.396 101.763 274.001 101.763C273.535 101.763 273.06 101.844 272.577 102.006C272.111 102.15 271.69 102.375 271.313 102.681C270.937 102.969 270.623 103.347 270.372 103.815C270.14 104.265 270.023 104.787 270.023 105.381C270.023 105.867 270.113 106.353 270.292 106.839C270.471 107.307 270.713 107.73 271.018 108.108C271.322 108.486 271.672 108.792 272.066 109.026C272.46 109.242 272.863 109.35 273.276 109.35ZM281.32 109.485C281.32 109.377 281.338 109.251 281.374 109.107C281.428 108.945 281.491 108.801 281.562 108.675C281.652 108.531 281.742 108.414 281.831 108.324C281.921 108.216 282.019 108.162 282.127 108.162C282.199 108.162 282.297 108.243 282.423 108.405C282.584 108.621 282.736 108.792 282.88 108.918C283.041 109.026 283.202 109.116 283.363 109.188C283.543 109.26 283.74 109.305 283.955 109.323C284.188 109.341 284.456 109.35 284.761 109.35C285.102 109.35 285.46 109.314 285.836 109.242C286.213 109.17 286.553 109.089 286.858 108.999C287.162 108.909 287.413 108.81 287.61 108.702C287.825 108.594 287.933 108.513 287.933 108.459C287.933 108.279 287.754 108.135 287.395 108.027C287.055 107.901 286.616 107.784 286.078 107.676C285.541 107.568 284.967 107.433 284.358 107.271C283.749 107.109 283.175 106.893 282.638 106.623C282.1 106.335 281.652 105.975 281.294 105.543C280.953 105.093 280.783 104.526 280.783 103.842C280.783 103.086 280.935 102.42 281.24 101.844C281.562 101.25 281.975 100.755 282.476 100.359C282.978 99.945 283.534 99.639 284.143 99.441C284.752 99.225 285.353 99.117 285.944 99.117C286.786 99.117 287.458 99.351 287.96 99.819C288.462 100.287 288.712 100.827 288.712 101.439C288.712 101.655 288.704 101.889 288.686 102.141C288.686 102.393 288.659 102.636 288.605 102.87C288.551 103.086 288.471 103.275 288.363 103.437C288.256 103.581 288.094 103.653 287.879 103.653C287.682 103.653 287.557 103.554 287.503 103.356C287.449 103.158 287.422 102.906 287.422 102.6C287.422 102.186 287.261 101.907 286.938 101.763C286.634 101.619 286.204 101.547 285.648 101.547C285.344 101.547 285.003 101.61 284.627 101.736C284.268 101.844 283.928 102.006 283.605 102.222C283.283 102.42 283.005 102.654 282.772 102.924C282.557 103.176 282.449 103.437 282.449 103.707C282.449 104.031 282.62 104.274 282.96 104.436C283.319 104.58 283.767 104.706 284.304 104.814C284.842 104.922 285.415 105.039 286.024 105.165C286.634 105.273 287.207 105.444 287.745 105.678C288.282 105.912 288.721 106.236 289.062 106.65C289.42 107.064 289.6 107.622 289.6 108.324C289.6 108.954 289.402 109.494 289.008 109.944C288.614 110.376 288.139 110.727 287.584 110.997C287.046 111.267 286.481 111.456 285.89 111.564C285.317 111.69 284.851 111.753 284.492 111.753C284.224 111.753 283.91 111.726 283.552 111.672C283.193 111.636 282.844 111.537 282.503 111.375C282.181 111.213 281.903 110.988 281.67 110.7C281.437 110.394 281.32 109.989 281.32 109.485ZM298.239 105.705C298.239 104.841 298.338 104.004 298.535 103.194C298.732 102.384 298.974 101.574 299.261 100.764C299.422 100.296 299.664 99.801 299.986 99.279C300.309 98.739 300.694 98.244 301.142 97.794C301.59 97.326 302.074 96.939 302.594 96.633C303.131 96.327 303.687 96.174 304.26 96.174C304.762 96.174 305.264 96.264 305.766 96.444C306.267 96.624 306.706 96.894 307.083 97.254C307.477 97.596 307.791 98.037 308.024 98.577C308.274 99.099 308.4 99.702 308.4 100.386C308.4 100.548 308.373 100.737 308.319 100.953C308.283 101.151 308.221 101.349 308.131 101.547C308.059 101.727 307.952 101.88 307.809 102.006C307.665 102.132 307.504 102.195 307.325 102.195C307.074 102.195 306.904 102.105 306.814 101.925C306.742 101.745 306.697 101.52 306.68 101.25C306.662 100.962 306.635 100.665 306.599 100.359C306.581 100.035 306.5 99.738 306.357 99.468C306.214 99.18 305.981 98.946 305.658 98.766C305.353 98.586 304.896 98.496 304.287 98.496C303.785 98.496 303.328 98.631 302.916 98.901C302.504 99.171 302.137 99.522 301.814 99.954C301.51 100.368 301.241 100.845 301.008 101.385C300.775 101.907 300.587 102.438 300.443 102.978C300.3 103.5 300.192 104.004 300.121 104.49C300.049 104.976 300.013 105.372 300.013 105.678C300.013 106.254 300.121 106.758 300.336 107.19C300.569 107.622 300.865 107.991 301.223 108.297C301.599 108.603 302.011 108.837 302.459 108.999C302.925 109.143 303.4 109.215 303.884 109.215C304.117 109.215 304.395 109.206 304.717 109.188C305.04 109.17 305.371 109.134 305.712 109.08C306.052 109.026 306.384 108.963 306.706 108.891C307.029 108.819 307.316 108.729 307.567 108.621C307.853 108.369 308.068 108.18 308.212 108.054C308.355 107.928 308.472 107.865 308.561 107.865C308.812 107.865 309.018 107.982 309.179 108.216C309.341 108.45 309.421 108.747 309.421 109.107C309.421 109.575 309.233 109.971 308.857 110.295C308.498 110.601 308.05 110.853 307.513 111.051C306.975 111.231 306.393 111.357 305.766 111.429C305.138 111.519 304.574 111.564 304.072 111.564C303.373 111.564 302.674 111.483 301.976 111.321C301.295 111.159 300.676 110.862 300.121 110.43C299.565 109.998 299.108 109.404 298.75 108.648C298.409 107.874 298.239 106.893 298.239 105.705ZM310.77 106.731C310.77 105.849 310.922 104.976 311.227 104.112C311.531 103.23 311.952 102.447 312.49 101.763C313.028 101.061 313.646 100.503 314.345 100.089C315.062 99.657 315.823 99.441 316.63 99.441C317.239 99.441 317.812 99.585 318.35 99.873C318.905 100.161 319.38 100.539 319.775 101.007C320.169 101.457 320.482 101.979 320.715 102.573C320.948 103.149 321.065 103.725 321.065 104.301C321.065 104.607 321.047 104.904 321.011 105.192C320.975 105.462 320.93 105.741 320.877 106.029C320.841 106.299 320.805 106.587 320.769 106.893C320.733 107.199 320.715 107.541 320.715 107.919C320.715 108.423 320.787 108.774 320.93 108.972C321.074 109.17 321.28 109.269 321.549 109.269C321.71 109.269 321.862 109.179 322.006 108.999C322.167 108.819 322.31 108.711 322.436 108.675C322.902 108.675 323.135 109.017 323.135 109.701C323.135 109.917 323.09 110.133 323 110.349C322.911 110.565 322.785 110.763 322.624 110.943C322.463 111.105 322.274 111.249 322.059 111.375C321.844 111.483 321.611 111.537 321.36 111.537C321.11 111.537 320.859 111.465 320.608 111.321C320.375 111.177 320.16 110.997 319.963 110.781C319.766 110.547 319.604 110.286 319.479 109.998C319.353 109.692 319.291 109.377 319.291 109.053C318.753 109.737 318.144 110.34 317.463 110.862C316.8 111.384 316.065 111.645 315.259 111.645C314.739 111.645 314.21 111.519 313.673 111.267C313.153 111.015 312.678 110.673 312.248 110.241C311.818 109.791 311.46 109.269 311.173 108.675C310.904 108.063 310.77 107.415 310.77 106.731ZM312.436 106.65C312.436 107.046 312.526 107.406 312.705 107.73C312.902 108.054 313.153 108.333 313.458 108.567C313.78 108.783 314.13 108.954 314.506 109.08C314.9 109.206 315.286 109.269 315.662 109.269C316.45 109.269 317.078 109.098 317.544 108.756C318.009 108.396 318.377 107.955 318.646 107.433C318.914 106.893 319.103 106.317 319.21 105.705C319.318 105.075 319.416 104.481 319.506 103.923C319.506 103.725 319.407 103.509 319.21 103.275C319.031 103.023 318.807 102.798 318.538 102.6C318.269 102.384 317.974 102.204 317.651 102.06C317.346 101.916 317.069 101.844 316.818 101.844C316.155 101.844 315.554 101.988 315.017 102.276C314.479 102.564 314.013 102.942 313.619 103.41C313.243 103.86 312.947 104.373 312.732 104.949C312.535 105.525 312.436 106.092 312.436 106.65ZM325.036 111.537C324.624 111.537 324.364 111.303 324.257 110.835C324.167 110.367 324.122 109.728 324.122 108.918V107.838L324.311 94.365C324.311 94.023 324.364 93.744 324.472 93.528C324.597 93.294 324.839 93.177 325.198 93.177C325.341 93.177 325.511 93.267 325.708 93.447C325.923 93.609 326.031 93.843 326.031 94.149C326.031 94.599 326.022 95.04 326.004 95.472C326.004 95.904 325.995 96.372 325.977 96.876C325.959 97.362 325.941 97.893 325.923 98.469C325.923 99.045 325.923 99.702 325.923 100.44C326.371 100.188 326.828 99.963 327.294 99.765C327.778 99.567 328.28 99.468 328.8 99.468C331.864 99.468 333.396 101.403 333.396 105.273C333.396 106.443 333.19 107.424 332.778 108.216C332.384 109.008 331.891 109.647 331.299 110.133C330.726 110.619 330.108 110.97 329.445 111.186C328.782 111.402 328.19 111.51 327.671 111.51C327.097 111.51 326.533 111.411 325.977 111.213C325.798 111.213 325.646 111.267 325.52 111.375C325.395 111.483 325.233 111.537 325.036 111.537ZM326.085 108.945C326.246 109.035 326.488 109.098 326.81 109.134C327.133 109.152 327.42 109.161 327.671 109.161C327.957 109.161 328.271 109.116 328.611 109.026C328.952 108.936 329.283 108.81 329.606 108.648C329.928 108.486 330.224 108.297 330.493 108.081C330.762 107.847 330.977 107.604 331.138 107.352C331.299 107.064 331.425 106.641 331.514 106.083C331.604 105.507 331.649 104.985 331.649 104.517C331.649 104.121 331.532 103.761 331.299 103.437C331.084 103.095 330.816 102.807 330.493 102.573C330.17 102.339 329.821 102.159 329.445 102.033C329.086 101.907 328.764 101.844 328.477 101.844C328.262 101.844 328.029 101.88 327.778 101.952C327.527 102.006 327.285 102.096 327.052 102.222C326.819 102.33 326.604 102.465 326.407 102.627C326.21 102.771 326.049 102.924 325.923 103.086C325.905 103.608 325.896 104.085 325.896 104.517C325.896 104.949 325.896 105.345 325.896 105.705C325.896 106.353 325.896 106.875 325.896 107.271C325.914 107.667 325.932 107.982 325.95 108.216C325.968 108.432 325.986 108.594 326.004 108.702C326.022 108.81 326.049 108.891 326.085 108.945ZM334.999 106.731C334.999 105.849 335.151 104.976 335.456 104.112C335.76 103.23 336.181 102.447 336.719 101.763C337.257 101.061 337.875 100.503 338.574 100.089C339.291 99.657 340.052 99.441 340.859 99.441C341.468 99.441 342.041 99.585 342.579 99.873C343.134 100.161 343.609 100.539 344.004 101.007C344.398 101.457 344.711 101.979 344.944 102.573C345.177 103.149 345.294 103.725 345.294 104.301C345.294 104.607 345.276 104.904 345.24 105.192C345.204 105.462 345.159 105.741 345.106 106.029C345.07 106.299 345.034 106.587 344.998 106.893C344.962 107.199 344.944 107.541 344.944 107.919C344.944 108.423 345.016 108.774 345.159 108.972C345.303 109.17 345.509 109.269 345.778 109.269C345.939 109.269 346.091 109.179 346.235 108.999C346.396 108.819 346.539 108.711 346.665 108.675C347.131 108.675 347.364 109.017 347.364 109.701C347.364 109.917 347.319 110.133 347.229 110.349C347.14 110.565 347.014 110.763 346.853 110.943C346.692 111.105 346.503 111.249 346.288 111.375C346.073 111.483 345.84 111.537 345.589 111.537C345.339 111.537 345.088 111.465 344.837 111.321C344.604 111.177 344.389 110.997 344.192 110.781C343.995 110.547 343.833 110.286 343.708 109.998C343.582 109.692 343.52 109.377 343.52 109.053C342.982 109.737 342.373 110.34 341.692 110.862C341.029 111.384 340.294 111.645 339.488 111.645C338.968 111.645 338.439 111.519 337.902 111.267C337.382 111.015 336.907 110.673 336.477 110.241C336.047 109.791 335.689 109.269 335.402 108.675C335.133 108.063 334.999 107.415 334.999 106.731ZM336.665 106.65C336.665 107.046 336.755 107.406 336.934 107.73C337.131 108.054 337.382 108.333 337.687 108.567C338.009 108.783 338.359 108.954 338.735 109.08C339.129 109.206 339.515 109.269 339.891 109.269C340.679 109.269 341.307 109.098 341.772 108.756C342.238 108.396 342.606 107.955 342.875 107.433C343.143 106.893 343.332 106.317 343.439 105.705C343.547 105.075 343.645 104.481 343.735 103.923C343.735 103.725 343.636 103.509 343.439 103.275C343.26 103.023 343.036 102.798 342.767 102.6C342.498 102.384 342.203 102.204 341.88 102.06C341.575 101.916 341.298 101.844 341.047 101.844C340.384 101.844 339.783 101.988 339.246 102.276C338.708 102.564 338.242 102.942 337.848 103.41C337.472 103.86 337.176 104.373 336.961 104.949C336.764 105.525 336.665 106.092 336.665 106.65ZM349.158 94.77C349.158 94.266 349.229 93.834 349.373 93.474C349.516 93.114 349.749 92.934 350.072 92.934C350.305 92.934 350.484 93.069 350.609 93.339C350.735 93.591 350.797 93.843 350.797 94.095L350.636 106.002C350.636 106.38 350.636 106.758 350.636 107.136C350.654 107.514 350.69 107.856 350.744 108.162C350.797 108.45 350.869 108.684 350.959 108.864C351.066 109.044 351.201 109.134 351.362 109.134C351.469 109.134 351.559 109.107 351.631 109.053C351.72 108.981 351.801 108.909 351.873 108.837C351.944 108.765 352.016 108.702 352.088 108.648C352.177 108.576 352.276 108.54 352.383 108.54C352.634 108.54 352.805 108.666 352.894 108.918C353.002 109.17 353.055 109.431 353.055 109.701C353.055 109.971 352.993 110.214 352.867 110.43C352.742 110.628 352.589 110.808 352.41 110.97C352.249 111.114 352.07 111.231 351.873 111.321C351.676 111.393 351.496 111.429 351.335 111.429C350.493 111.429 349.893 111.168 349.534 110.646C349.176 110.106 349.005 109.35 349.023 108.378L349.158 94.77ZM355.562 94.77C355.562 94.266 355.634 93.834 355.777 93.474C355.92 93.114 356.153 92.934 356.476 92.934C356.709 92.934 356.888 93.069 357.013 93.339C357.139 93.591 357.202 93.843 357.202 94.095L357.04 106.002C357.04 106.38 357.04 106.758 357.04 107.136C357.058 107.514 357.094 107.856 357.148 108.162C357.202 108.45 357.273 108.684 357.363 108.864C357.47 109.044 357.605 109.134 357.766 109.134C357.874 109.134 357.963 109.107 358.035 109.053C358.125 108.981 358.205 108.909 358.277 108.837C358.349 108.765 358.42 108.702 358.492 108.648C358.581 108.576 358.68 108.54 358.788 108.54C359.038 108.54 359.209 108.666 359.298 108.918C359.406 109.17 359.46 109.431 359.46 109.701C359.46 109.971 359.397 110.214 359.271 110.43C359.146 110.628 358.994 110.808 358.814 110.97C358.653 111.114 358.474 111.231 358.277 111.321C358.08 111.393 357.9 111.429 357.739 111.429C356.897 111.429 356.297 111.168 355.938 110.646C355.58 110.106 355.41 109.35 355.428 108.378L355.562 94.77ZM362.37 107.406C362.514 107.874 362.756 108.243 363.096 108.513C363.437 108.783 363.813 108.981 364.225 109.107C364.637 109.233 365.049 109.314 365.462 109.35C365.874 109.368 366.232 109.377 366.537 109.377C366.841 109.377 367.146 109.332 367.451 109.242C367.755 109.152 368.042 109.053 368.311 108.945C368.598 108.837 368.857 108.738 369.09 108.648C369.341 108.558 369.547 108.513 369.709 108.513C370.318 108.513 370.623 108.909 370.623 109.701C370.623 110.169 370.408 110.529 369.977 110.781C369.565 111.033 369.072 111.222 368.499 111.348C367.944 111.474 367.388 111.546 366.832 111.564C366.295 111.6 365.901 111.618 365.65 111.618C365.04 111.618 364.44 111.483 363.849 111.213C363.257 110.943 362.729 110.565 362.263 110.079C361.815 109.593 361.448 109.026 361.161 108.378C360.892 107.73 360.758 107.028 360.758 106.272C360.758 105.228 360.883 104.274 361.134 103.41C361.403 102.546 361.779 101.799 362.263 101.169C362.747 100.539 363.347 100.053 364.064 99.711C364.781 99.351 365.596 99.171 366.51 99.171C366.958 99.171 367.424 99.261 367.908 99.441C368.392 99.603 368.822 99.855 369.198 100.197C369.592 100.521 369.915 100.935 370.166 101.439C370.417 101.925 370.542 102.492 370.542 103.14C370.542 103.554 370.479 103.905 370.354 104.193C370.228 104.481 370.058 104.661 369.843 104.733L362.37 107.406ZM362.263 105.543C362.765 105.399 363.329 105.21 363.956 104.976C364.601 104.724 365.247 104.472 365.892 104.22C366.537 103.95 367.137 103.698 367.693 103.464C368.266 103.212 368.732 103.014 369.09 102.87C368.857 102.366 368.463 102.015 367.908 101.817C367.37 101.601 366.788 101.493 366.16 101.493C365.91 101.493 365.587 101.574 365.193 101.736C364.799 101.88 364.395 102.114 363.983 102.438C363.589 102.762 363.231 103.185 362.908 103.707C362.585 104.211 362.37 104.823 362.263 105.543ZM373.241 109.917C373.241 109.503 373.241 109.17 373.241 108.918C373.259 108.648 373.268 108.423 373.268 108.243V107.487C373.268 107.253 373.268 107.028 373.268 106.812C373.268 106.578 373.277 106.245 373.295 105.813C373.331 105.381 373.367 104.787 373.402 104.031C373.456 103.275 373.537 102.231 373.644 100.899C373.68 100.503 373.77 100.188 373.913 99.954C374.057 99.702 374.28 99.576 374.585 99.576C374.728 99.576 374.881 99.675 375.042 99.873C375.203 100.053 375.284 100.413 375.284 100.953C375.284 101.043 375.284 101.142 375.284 101.25C375.284 101.34 375.275 101.448 375.257 101.574C375.383 101.16 375.58 100.809 375.849 100.521C376.135 100.233 376.449 99.999 376.789 99.819C377.13 99.639 377.479 99.513 377.838 99.441C378.196 99.351 378.528 99.306 378.832 99.306C379.065 99.306 379.334 99.333 379.639 99.387C379.961 99.423 380.257 99.513 380.526 99.657C380.812 99.783 381.045 99.981 381.224 100.251C381.422 100.503 381.52 100.845 381.52 101.277C381.52 101.673 381.448 101.997 381.305 102.249C381.162 102.501 380.956 102.627 380.687 102.627C380.472 102.627 380.329 102.582 380.257 102.492C380.203 102.384 380.131 102.267 380.042 102.141C379.97 102.015 379.854 101.907 379.692 101.817C379.531 101.709 379.244 101.655 378.832 101.655H378.563C377.273 101.655 376.368 102.015 375.849 102.735C375.329 103.437 375.069 104.49 375.069 105.894V106.353L375.203 110.16C375.203 110.25 375.185 110.367 375.15 110.511C375.114 110.637 375.06 110.772 374.988 110.916C374.917 111.06 374.818 111.186 374.693 111.294C374.585 111.384 374.442 111.429 374.263 111.429C373.85 111.429 373.573 111.312 373.429 111.078C373.304 110.826 373.241 110.439 373.241 109.917ZM382.599 105.651C382.599 104.517 382.751 103.554 383.056 102.762C383.36 101.97 383.764 101.331 384.265 100.845C384.767 100.341 385.332 99.981 385.959 99.765C386.586 99.531 387.222 99.414 387.867 99.414C389.355 99.414 390.51 99.981 391.335 101.115C392.159 102.231 392.571 103.743 392.571 105.651C392.571 106.551 392.428 107.37 392.141 108.108C391.854 108.828 391.478 109.458 391.012 109.998C390.546 110.52 390.009 110.925 389.399 111.213C388.808 111.501 388.199 111.645 387.572 111.645C386.891 111.645 386.245 111.465 385.636 111.105C385.045 110.727 384.516 110.25 384.05 109.674C383.602 109.098 383.244 108.459 382.975 107.757C382.724 107.037 382.599 106.335 382.599 105.651ZM387.437 109.35C387.885 109.35 388.315 109.269 388.727 109.107C389.157 108.927 389.534 108.675 389.856 108.351C390.197 108.027 390.466 107.631 390.663 107.163C390.86 106.695 390.958 106.155 390.958 105.543C390.958 104.985 390.887 104.472 390.743 104.004C390.6 103.536 390.403 103.14 390.152 102.816C389.901 102.474 389.605 102.213 389.265 102.033C388.925 101.853 388.557 101.763 388.163 101.763C387.697 101.763 387.222 101.844 386.738 102.006C386.272 102.15 385.851 102.375 385.475 102.681C385.099 102.969 384.785 103.347 384.534 103.815C384.301 104.265 384.185 104.787 384.185 105.381C384.185 105.867 384.274 106.353 384.453 106.839C384.633 107.307 384.875 107.73 385.179 108.108C385.484 108.486 385.833 108.792 386.228 109.026C386.622 109.242 387.025 109.35 387.437 109.35ZM395.482 109.485C395.482 109.377 395.5 109.251 395.536 109.107C395.59 108.945 395.652 108.801 395.724 108.675C395.814 108.531 395.903 108.414 395.993 108.324C396.082 108.216 396.181 108.162 396.288 108.162C396.36 108.162 396.459 108.243 396.584 108.405C396.745 108.621 396.898 108.792 397.041 108.918C397.202 109.026 397.364 109.116 397.525 109.188C397.704 109.26 397.901 109.305 398.116 109.323C398.349 109.341 398.618 109.35 398.923 109.35C399.263 109.35 399.622 109.314 399.998 109.242C400.374 109.17 400.715 109.089 401.019 108.999C401.324 108.909 401.575 108.81 401.772 108.702C401.987 108.594 402.095 108.513 402.095 108.459C402.095 108.279 401.915 108.135 401.557 108.027C401.216 107.901 400.777 107.784 400.24 107.676C399.702 107.568 399.129 107.433 398.52 107.271C397.91 107.109 397.337 106.893 396.799 106.623C396.262 106.335 395.814 105.975 395.455 105.543C395.115 105.093 394.944 104.526 394.944 103.842C394.944 103.086 395.097 102.42 395.401 101.844C395.724 101.25 396.136 100.755 396.638 100.359C397.14 99.945 397.695 99.639 398.304 99.441C398.914 99.225 399.514 99.117 400.105 99.117C400.948 99.117 401.62 99.351 402.121 99.819C402.623 100.287 402.874 100.827 402.874 101.439C402.874 101.655 402.865 101.889 402.847 102.141C402.847 102.393 402.82 102.636 402.767 102.87C402.713 103.086 402.632 103.275 402.525 103.437C402.417 103.581 402.256 103.653 402.041 103.653C401.844 103.653 401.718 103.554 401.664 103.356C401.611 103.158 401.584 102.906 401.584 102.6C401.584 102.186 401.423 101.907 401.1 101.763C400.795 101.619 400.365 101.547 399.81 101.547C399.505 101.547 399.165 101.61 398.788 101.736C398.43 101.844 398.089 102.006 397.767 102.222C397.444 102.42 397.167 102.654 396.934 102.924C396.719 103.176 396.611 103.437 396.611 103.707C396.611 104.031 396.781 104.274 397.122 104.436C397.48 104.58 397.928 104.706 398.466 104.814C399.003 104.922 399.577 105.039 400.186 105.165C400.795 105.273 401.369 105.444 401.906 105.678C402.444 105.912 402.883 106.236 403.224 106.65C403.582 107.064 403.761 107.622 403.761 108.324C403.761 108.954 403.564 109.494 403.17 109.944C402.776 110.376 402.301 110.727 401.745 110.997C401.208 111.267 400.643 111.456 400.052 111.564C399.478 111.69 399.012 111.753 398.654 111.753C398.385 111.753 398.072 111.726 397.713 111.672C397.355 111.636 397.005 111.537 396.665 111.375C396.342 111.213 396.064 110.988 395.832 110.7C395.599 110.394 395.482 109.989 395.482 109.485ZM411.998 106.083C411.998 105.237 412.123 104.418 412.374 103.626C412.625 102.816 412.983 102.105 413.449 101.493C413.933 100.863 414.524 100.368 415.223 100.008C415.922 99.63 416.72 99.441 417.616 99.441C418.368 99.441 419.031 99.648 419.605 100.062C420.178 100.476 420.501 101.025 420.572 101.709C420.572 101.511 420.572 101.232 420.572 100.872C420.572 100.494 420.572 100.071 420.572 99.603C420.59 99.135 420.599 98.658 420.599 98.172C420.599 97.668 420.599 97.182 420.599 96.714C420.617 96.246 420.626 95.832 420.626 95.472C420.626 95.094 420.626 94.806 420.626 94.608C420.626 93.744 420.94 93.312 421.567 93.312C421.818 93.312 421.988 93.438 422.078 93.69C422.185 93.942 422.239 94.212 422.239 94.5C422.239 94.644 422.239 94.896 422.239 95.256C422.239 95.598 422.23 95.967 422.212 96.363C422.212 96.741 422.212 97.101 422.212 97.443C422.212 97.785 422.212 98.037 422.212 98.199C422.176 99.477 422.149 100.566 422.131 101.466C422.113 102.348 422.096 103.077 422.078 103.653C422.078 104.229 422.069 104.679 422.051 105.003C422.051 105.327 422.051 105.57 422.051 105.732C422.051 105.876 422.051 105.966 422.051 106.002C422.051 106.038 422.051 106.065 422.051 106.083L422.024 108.216C422.024 108.684 422.006 109.125 421.97 109.539C421.952 109.935 421.907 110.286 421.836 110.592C421.764 110.88 421.656 111.114 421.513 111.294C421.37 111.474 421.182 111.564 420.949 111.564C420.752 111.564 420.59 111.42 420.465 111.132C420.339 110.844 420.232 110.565 420.142 110.295C419.927 110.511 419.658 110.7 419.336 110.862C419.013 111.006 418.682 111.132 418.341 111.24C418.001 111.33 417.66 111.402 417.32 111.456C416.997 111.51 416.72 111.537 416.487 111.537C415.734 111.537 415.071 111.411 414.497 111.159C413.942 110.889 413.476 110.511 413.1 110.025C412.723 109.539 412.446 108.963 412.266 108.297C412.087 107.631 411.998 106.893 411.998 106.083ZM413.718 106.002C413.718 107.046 414.014 107.865 414.605 108.459C415.196 109.035 415.922 109.323 416.782 109.323C417.302 109.323 417.768 109.269 418.18 109.161C418.592 109.035 418.942 108.891 419.228 108.729C419.515 108.567 419.739 108.396 419.9 108.216C420.08 108.036 420.187 107.874 420.223 107.73C420.312 107.424 420.357 107.1 420.357 106.758C420.375 106.416 420.384 106.083 420.384 105.759V105.03C420.384 104.598 420.304 104.193 420.142 103.815C419.999 103.419 419.802 103.068 419.551 102.762C419.3 102.456 419.004 102.213 418.664 102.033C418.341 101.853 418.001 101.763 417.642 101.763C417.033 101.763 416.487 101.871 416.003 102.087C415.519 102.285 415.107 102.573 414.766 102.951C414.426 103.329 414.166 103.779 413.987 104.301C413.808 104.823 413.718 105.39 413.718 106.002ZM426.21 107.406C426.354 107.874 426.596 108.243 426.936 108.513C427.277 108.783 427.653 108.981 428.065 109.107C428.477 109.233 428.889 109.314 429.302 109.35C429.714 109.368 430.072 109.377 430.377 109.377C430.681 109.377 430.986 109.332 431.291 109.242C431.595 109.152 431.882 109.053 432.151 108.945C432.438 108.837 432.697 108.738 432.93 108.648C433.181 108.558 433.387 108.513 433.549 108.513C434.158 108.513 434.463 108.909 434.463 109.701C434.463 110.169 434.248 110.529 433.817 110.781C433.405 111.033 432.913 111.222 432.339 111.348C431.784 111.474 431.228 111.546 430.672 111.564C430.135 111.6 429.741 111.618 429.49 111.618C428.88 111.618 428.28 111.483 427.689 111.213C427.097 110.943 426.569 110.565 426.103 110.079C425.655 109.593 425.288 109.026 425.001 108.378C424.732 107.73 424.598 107.028 424.598 106.272C424.598 105.228 424.723 104.274 424.974 103.41C425.243 102.546 425.619 101.799 426.103 101.169C426.587 100.539 427.187 100.053 427.904 99.711C428.621 99.351 429.436 99.171 430.35 99.171C430.798 99.171 431.264 99.261 431.748 99.441C432.232 99.603 432.662 99.855 433.038 100.197C433.432 100.521 433.755 100.935 434.006 101.439C434.257 101.925 434.382 102.492 434.382 103.14C434.382 103.554 434.319 103.905 434.194 104.193C434.068 104.481 433.898 104.661 433.683 104.733L426.21 107.406ZM426.103 105.543C426.605 105.399 427.169 105.21 427.796 104.976C428.441 104.724 429.087 104.472 429.732 104.22C430.377 103.95 430.977 103.698 431.533 103.464C432.106 103.212 432.572 103.014 432.93 102.87C432.697 102.366 432.303 102.015 431.748 101.817C431.21 101.601 430.628 101.493 430 101.493C429.75 101.493 429.427 101.574 429.033 101.736C428.639 101.88 428.235 102.114 427.823 102.438C427.429 102.762 427.071 103.185 426.748 103.707C426.425 104.211 426.21 104.823 426.103 105.543ZM443.466 110.565C443.466 110.079 443.484 109.611 443.52 109.161C443.556 108.711 443.619 108.09 443.708 107.298C443.708 106.02 443.672 104.751 443.601 103.491C443.547 102.213 443.52 100.935 443.52 99.657C443.52 98.433 443.565 97.569 443.654 97.065C443.744 96.543 443.977 96.282 444.353 96.282C444.586 96.282 444.801 96.426 444.998 96.714C445.213 97.002 445.321 97.335 445.321 97.713C445.321 97.893 445.321 98.046 445.321 98.172C445.321 98.298 445.312 98.433 445.294 98.577C445.294 98.703 445.285 98.847 445.267 99.009C445.249 99.171 445.231 99.36 445.213 99.576C445.213 100.152 445.213 100.746 445.213 101.358C445.213 101.952 445.222 102.546 445.24 103.14L445.375 108.729C446.163 108.765 446.916 108.801 447.633 108.837C448.349 108.873 449.12 108.891 449.944 108.891C449.98 108.891 450.025 108.891 450.079 108.891C450.132 108.891 450.204 108.882 450.294 108.864C450.401 108.846 450.536 108.828 450.697 108.81C450.876 108.774 451.109 108.738 451.396 108.702C451.629 108.72 451.826 108.873 451.987 109.161C452.148 109.431 452.229 109.746 452.229 110.106C452.229 110.268 452.193 110.43 452.122 110.592C452.068 110.754 451.987 110.907 451.88 111.051C451.79 111.177 451.683 111.285 451.557 111.375C451.45 111.465 451.342 111.51 451.235 111.51C450.661 111.51 450.061 111.483 449.434 111.429C448.806 111.393 448.134 111.375 447.418 111.375C447.131 111.375 446.835 111.393 446.531 111.429C446.244 111.483 445.93 111.51 445.59 111.51C445.554 111.51 445.5 111.51 445.428 111.51C445.375 111.51 445.285 111.501 445.16 111.483C445.052 111.483 444.891 111.474 444.676 111.456C444.479 111.438 444.219 111.411 443.896 111.375C443.771 111.375 443.663 111.339 443.574 111.267C443.502 111.177 443.466 110.943 443.466 110.565ZM455.19 107.406C455.334 107.874 455.576 108.243 455.916 108.513C456.257 108.783 456.633 108.981 457.045 109.107C457.457 109.233 457.869 109.314 458.282 109.35C458.694 109.368 459.052 109.377 459.357 109.377C459.661 109.377 459.966 109.332 460.271 109.242C460.575 109.152 460.862 109.053 461.131 108.945C461.418 108.837 461.677 108.738 461.91 108.648C462.161 108.558 462.367 108.513 462.529 108.513C463.138 108.513 463.443 108.909 463.443 109.701C463.443 110.169 463.228 110.529 462.797 110.781C462.385 111.033 461.892 111.222 461.319 111.348C460.764 111.474 460.208 111.546 459.652 111.564C459.115 111.6 458.721 111.618 458.47 111.618C457.86 111.618 457.26 111.483 456.669 111.213C456.077 110.943 455.549 110.565 455.083 110.079C454.635 109.593 454.268 109.026 453.981 108.378C453.712 107.73 453.578 107.028 453.578 106.272C453.578 105.228 453.703 104.274 453.954 103.41C454.223 102.546 454.599 101.799 455.083 101.169C455.567 100.539 456.167 100.053 456.884 99.711C457.601 99.351 458.416 99.171 459.33 99.171C459.778 99.171 460.244 99.261 460.728 99.441C461.212 99.603 461.642 99.855 462.018 100.197C462.412 100.521 462.735 100.935 462.986 101.439C463.237 101.925 463.362 102.492 463.362 103.14C463.362 103.554 463.299 103.905 463.174 104.193C463.048 104.481 462.878 104.661 462.663 104.733L455.19 107.406ZM455.083 105.543C455.585 105.399 456.149 105.21 456.776 104.976C457.421 104.724 458.067 104.472 458.712 104.22C459.357 103.95 459.957 103.698 460.513 103.464C461.086 103.212 461.552 103.014 461.91 102.87C461.677 102.366 461.283 102.015 460.728 101.817C460.19 101.601 459.608 101.493 458.98 101.493C458.73 101.493 458.407 101.574 458.013 101.736C457.619 101.88 457.215 102.114 456.803 102.438C456.409 102.762 456.051 103.185 455.728 103.707C455.405 104.211 455.19 104.823 455.083 105.543ZM465.443 105.651C465.443 104.517 465.595 103.554 465.9 102.762C466.204 101.97 466.608 101.331 467.109 100.845C467.611 100.341 468.176 99.981 468.803 99.765C469.43 99.531 470.066 99.414 470.711 99.414C472.199 99.414 473.355 99.981 474.179 101.115C475.003 102.231 475.415 103.743 475.415 105.651C475.415 106.551 475.272 107.37 474.985 108.108C474.699 108.828 474.322 109.458 473.856 109.998C473.39 110.52 472.853 110.925 472.244 111.213C471.652 111.501 471.043 111.645 470.416 111.645C469.735 111.645 469.09 111.465 468.48 111.105C467.889 110.727 467.36 110.25 466.894 109.674C466.446 109.098 466.088 108.459 465.819 107.757C465.568 107.037 465.443 106.335 465.443 105.651ZM470.281 109.35C470.729 109.35 471.159 109.269 471.572 109.107C472.002 108.927 472.378 108.675 472.7 108.351C473.041 108.027 473.31 107.631 473.507 107.163C473.704 106.695 473.803 106.155 473.803 105.543C473.803 104.985 473.731 104.472 473.588 104.004C473.444 103.536 473.247 103.14 472.996 102.816C472.745 102.474 472.45 102.213 472.109 102.033C471.769 101.853 471.401 101.763 471.007 101.763C470.541 101.763 470.066 101.844 469.582 102.006C469.116 102.15 468.695 102.375 468.319 102.681C467.943 102.969 467.629 103.347 467.378 103.815C467.145 104.265 467.029 104.787 467.029 105.381C467.029 105.867 467.118 106.353 467.298 106.839C467.477 107.307 467.719 107.73 468.023 108.108C468.328 108.486 468.677 108.792 469.072 109.026C469.466 109.242 469.869 109.35 470.281 109.35ZM470.604 97.956C470.335 97.956 470.165 97.884 470.093 97.74C470.021 97.596 469.986 97.398 469.986 97.146V96.795C469.986 96.489 470.048 96.246 470.174 96.066C470.317 95.886 470.487 95.706 470.684 95.526C470.9 95.328 471.115 95.058 471.33 94.716C471.563 94.356 471.796 94.014 472.029 93.69C472.261 93.348 472.503 93.06 472.754 92.826C473.005 92.574 473.256 92.448 473.507 92.448C473.758 92.448 473.973 92.547 474.152 92.745C474.331 92.943 474.421 93.231 474.421 93.609C474.421 93.699 474.349 93.87 474.206 94.122C474.062 94.374 473.874 94.662 473.641 94.986C473.426 95.31 473.175 95.643 472.889 95.985C472.62 96.327 472.342 96.651 472.055 96.957C471.769 97.245 471.5 97.488 471.249 97.686C470.998 97.866 470.783 97.956 470.604 97.956ZM477.897 105.165C477.861 104.733 477.835 104.382 477.817 104.112C477.817 103.824 477.808 103.59 477.79 103.41C477.79 103.23 477.79 103.095 477.79 103.005C477.79 102.915 477.79 102.825 477.79 102.735V102.357C477.79 102.069 477.799 101.763 477.817 101.439C477.853 101.097 477.897 100.782 477.951 100.494C478.023 100.206 478.112 99.963 478.22 99.765C478.327 99.567 478.471 99.468 478.65 99.468C479.277 99.468 479.591 100.017 479.591 101.115C479.591 101.313 479.582 101.52 479.564 101.736C479.546 101.952 479.519 102.186 479.483 102.438C479.627 101.916 479.86 101.466 480.182 101.088C480.523 100.71 480.89 100.395 481.284 100.143C481.678 99.891 482.064 99.702 482.44 99.576C482.834 99.45 483.166 99.387 483.435 99.387C484.277 99.387 484.976 99.585 485.531 99.981C486.087 100.377 486.526 100.89 486.848 101.52C487.171 102.15 487.395 102.852 487.52 103.626C487.646 104.4 487.708 105.165 487.708 105.921C487.708 106.551 487.691 107.208 487.655 107.892C487.637 108.576 487.583 109.206 487.493 109.782C487.422 110.34 487.305 110.808 487.144 111.186C486.983 111.546 486.768 111.726 486.499 111.726C486.23 111.726 485.997 111.654 485.8 111.51C485.621 111.384 485.531 110.997 485.531 110.349C485.531 110.025 485.558 109.719 485.612 109.431C485.666 109.125 485.719 108.819 485.773 108.513C485.845 108.207 485.908 107.901 485.961 107.595C486.015 107.271 486.042 106.938 486.042 106.596C486.042 106.11 486.006 105.588 485.934 105.03C485.881 104.472 485.746 103.95 485.531 103.464C485.316 102.978 485.012 102.573 484.617 102.249C484.223 101.925 483.694 101.763 483.031 101.763C482.781 101.763 482.494 101.826 482.171 101.952C481.849 102.06 481.526 102.222 481.204 102.438C480.881 102.636 480.567 102.879 480.263 103.167C479.976 103.455 479.725 103.77 479.51 104.112C479.51 104.526 479.501 104.994 479.483 105.516C479.465 106.02 479.456 106.461 479.456 106.839C479.456 107.415 479.519 107.955 479.645 108.459C479.788 108.963 479.86 109.503 479.86 110.079C479.86 110.475 479.815 110.817 479.725 111.105C479.636 111.393 479.394 111.537 478.999 111.537C478.856 111.537 478.713 111.519 478.569 111.483C478.444 111.465 478.318 111.402 478.193 111.294C478.085 111.186 477.996 111.033 477.924 110.835C477.87 110.637 477.844 110.367 477.844 110.025L477.897 105.165Z" fill="white"/>
<path d="M144.229 128.358C148.745 128.358 152.831 127.764 156.486 126.576C160.25 125.388 163.421 123.93 166.002 122.202C166.217 122.634 166.324 123.336 166.324 124.308C166.324 127.656 163.69 130.464 158.422 132.732C153.153 134.892 147.401 135.972 141.165 135.972C135.251 135.972 130.843 134.73 127.94 132.246C125.144 129.654 123.747 125.442 123.747 119.61C123.747 112.266 125.628 99.144 129.391 80.244C122.08 80.028 112.995 79.92 102.135 79.92L73.1046 80.082C68.6963 95.85 65.9008 106.164 64.7181 111.024C63.5354 115.776 62.1376 122.472 60.5248 131.112C60.3098 132.3 60.041 133.056 59.7184 133.38C59.3958 133.596 58.697 133.758 57.6218 133.866C56.224 133.974 55.0413 134.19 54.0736 134.514C53.2134 134.73 51.977 135.27 50.3642 136.134L49.3965 135.81C51.4394 130.518 53.1059 125.604 54.3962 121.068C55.7939 116.424 58.1594 107.946 61.4925 95.634L65.847 80.082H65.0406C63.9654 80.082 62.8365 79.434 61.6538 78.138C60.471 76.734 59.8797 75.276 59.8797 73.764C59.8797 73.224 60.041 72.9 60.3635 72.792C60.6861 72.576 61.385 72.468 62.4602 72.468L67.9437 72.63L69.5565 66.96C72.567 56.052 74.6099 48.33 75.6851 43.794C76.7603 39.15 77.2979 35.586 77.2979 33.102C77.2979 30.942 76.8141 29.538 75.8464 28.89C74.8787 28.134 73.3197 27.756 71.1693 27.756C69.2339 27.756 66.7072 27.918 63.5891 28.242C60.471 28.458 57.9981 28.728 56.1702 29.052C55.7402 28.188 55.3101 27.378 54.88 26.622C54.5574 25.758 54.3962 24.948 54.3962 24.192C54.3962 22.896 55.0413 22.248 56.3315 22.248C69.449 21.708 77.6205 21.33 80.8461 21.114C84.0717 20.79 86.007 20.628 86.6522 20.628C87.6198 20.628 88.3187 20.736 88.7488 20.952C89.1789 21.168 89.3939 21.6 89.3939 22.248C89.3939 22.464 89.2864 23.004 89.0714 23.868L75.04 72.954C81.8138 73.278 91.5443 73.44 104.232 73.44C112.188 73.44 121.112 73.332 131.004 73.116C134.66 55.296 139.176 37.8 144.552 20.628C145.197 18.468 146.164 16.902 147.455 15.93C149.605 14.418 153.476 12.636 159.067 10.584C164.765 8.53198 169.066 7.50598 171.969 7.50598C174.98 7.50598 176.485 8.96398 176.485 11.88C173.797 11.88 169.765 12.96 164.389 15.12C159.013 17.172 155.519 19.224 153.906 21.276C152.078 23.544 149.713 29.754 146.81 39.906C143.907 50.058 141.219 60.75 138.746 71.982C134.337 92.286 132.133 107.568 132.133 117.828C132.133 120.312 132.402 122.31 132.94 123.822C133.477 125.226 134.606 126.36 136.326 127.224C138.047 127.98 140.681 128.358 144.229 128.358Z" fill="white"/>
</svg>
